<svg xmlns="http://www.w3.org/2000/svg" width="12" height="14" fill="none" viewBox="0 0 12 14"><path fill="#A7A9AB" fill-rule="evenodd" d="M3.138 0.370876C3.1026 0.37542 3.06855 0.387133 3.038 0.405275C2.91176 0.493057 2.88058 0.664183 2.968 0.78956L3.568 1.6741C2.65022 2.1227 1.97615 2.94121 1.721 3.91691H9.406C9.15279 2.94049 8.48015 2.12051 7.563 1.67017L8.163 0.785629C8.25042 0.660252 8.21924 0.489126 8.093 0.401344C7.96145 0.31777 7.78593 0.354203 7.7 0.482918L7.039 1.44019C6.08437 1.09831 5.03763 1.09831 4.083 1.44019L3.425 0.482918C3.361 0.392196 3.24789 0.348039 3.138 0.370876ZM4.03799 2.5498C4.2683 2.5498 4.45499 2.7333 4.45499 2.95964C4.45499 3.18599 4.2683 3.36948 4.03799 3.36948C3.80769 3.36948 3.62099 3.18599 3.62099 2.95964C3.62098 2.7352 3.80465 2.5525 4.03299 2.5498H4.03799ZM7.09801 2.5498C7.32831 2.5498 7.51501 2.7333 7.51501 2.95964C7.51501 3.18599 7.32831 3.36948 7.09801 3.36948C6.8677 3.36948 6.68101 3.18599 6.68101 2.95964C6.68099 2.7352 6.86466 2.5525 7.09301 2.5498H7.09801ZM0.835 4.46436C0.613544 4.46436 0.401159 4.55082 0.244566 4.70472C0.087973 4.85863 0 5.06736 0 5.28502V9.11214C0 9.56538 0.373842 9.9328 0.835 9.9328C0.929987 9.9318 1.02407 9.91451 1.113 9.8817V4.51546C1.02407 4.48265 0.929987 4.46536 0.835 4.46436ZM1.67 4.46436V10.4793C1.67055 10.9323 2.04407 11.2994 2.505 11.2999H8.625C9.08593 11.2994 9.45945 10.9323 9.46 10.4793V4.46436H1.67ZM10.293 4.46436C10.198 4.46536 10.1039 4.48265 10.015 4.51546V9.88071C10.2697 9.97451 10.5552 9.93868 10.7778 9.78498C11.0004 9.63127 11.1314 9.37949 11.128 9.11214V5.28502C11.128 5.06719 11.0399 4.85831 10.8831 4.70438C10.7263 4.55044 10.5136 4.4641 10.292 4.46436H10.293ZM2.782 11.8454V12.9393C2.80003 13.5304 3.29279 14.0004 3.8945 14.0004C4.4962 14.0004 4.98896 13.5304 5.007 12.9393V11.8454H2.782ZM6.12 11.8454V12.9393C6.13803 13.5304 6.63079 14.0004 7.23249 14.0004C7.8342 14.0004 8.32696 13.5304 8.34499 12.9393V11.8454H6.12Z" clip-rule="evenodd"/></svg>