<svg xmlns="http://www.w3.org/2000/svg" width="24" height="24" fill="none" viewBox="0 0 24 24"><path fill="#fff" fill-rule="evenodd" d="M21.9999 12C21.9999 12.5523 21.5522 13 20.9999 13L2.99994 13C2.44765 13 1.99994 12.5523 1.99994 12C1.99994 11.4477 2.44765 11 2.99994 11L20.9999 11C21.5522 11 21.9999 11.4477 21.9999 12Z" clip-rule="evenodd"/><path fill="#fff" fill-rule="evenodd" d="M11.2928 21.7071C10.9023 21.3166 10.9023 20.6834 11.2928 20.2929L19.5857 12L11.2928 3.70709C10.9023 3.31657 10.9023 2.6834 11.2928 2.29288C11.6834 1.90235 12.3165 1.90235 12.707 2.29288L21.707 11.2929C22.0976 11.6834 22.0976 12.3166 21.707 12.7071L12.707 21.7071C12.3165 22.0976 11.6834 22.0976 11.2928 21.7071Z" clip-rule="evenodd"/></svg>