<svg width="756" height="121" viewBox="0 0 756 121" fill="none" xmlns="http://www.w3.org/2000/svg">
<rect width="756" height="120" rx="6" fill="#02C7C7"/>
<g opacity="0.7">
<mask id="mask0" mask-type="alpha" maskUnits="userSpaceOnUse" x="0" y="0" width="756" height="120">
<rect width="756" height="120" rx="6" fill="#02C7C7"/>
</mask>
<g mask="url(#mask0)">
<mask id="mask1" mask-type="alpha" maskUnits="userSpaceOnUse" x="0" y="0" width="1667" height="265">
<rect width="1666.29" height="264.8" fill="#C4C4C4"/>
</mask>
<g mask="url(#mask1)">
<path opacity="0.2" d="M548.834 82.561C598.885 64.3393 737.266 82.5598 760.229 177.588L809.518 447.119L207.577 469.774C79.2892 437.507 -152.26 372.212 -52.158 369.175C72.9696 365.379 36.948 268.576 135.533 215.429C214.402 172.912 256.007 227.64 279.62 249.595C306.159 274.27 373.655 357.787 431.29 327.417C488.924 297.048 471.1 202.143 482.478 156.588C490.059 130.015 498.783 100.783 548.834 82.561Z" fill="#02B3B3"/>
<path opacity="0.2" d="M263.879 10.4369C210.794 -21.4512 198.152 -42.0772 220.271 -69.2832L780.507 -62.7767L795.674 39.7205C794.41 70.7228 735.062 155.571 663.483 162.285C622.084 166.168 591.44 141.406 568.689 107.24C553.632 84.6275 545.067 63.2195 516.026 50.2969L515.644 50.127C498.65 42.5638 477.643 33.214 415.544 33.214C362.46 29.4178 316.963 42.3249 263.879 10.4369Z" fill="#33E8E8"/>
<path opacity="0.2" d="M134.056 278.067C168.184 297.048 179.557 360.317 162.494 382.462L-44.1563 393.85L-47.948 86.3588C-47.948 86.3588 30.0855 25.6213 71.492 65.4797C112.899 105.338 65.4226 148.616 63.9059 177.467C62.01 213.531 85.8793 251.273 134.056 278.067Z" fill="#03D6D6"/>
<path opacity="0.2" d="M36.9437 128.116C-16.1408 102.302 -33.678 8.53633 -14.7193 -33.2218L-5.23994 -88.2666L558.311 -82.5723L760.408 1.10339C736.393 6.79768 673.806 30.8934 566.449 30.8934C500.326 30.8934 455.934 84.4602 435.08 118.626C414.225 152.792 384.31 179.365 355.872 181.263C316.874 183.866 295.204 179.365 270.558 147.097C245.912 114.83 228.849 107.237 196.619 105.339C173.114 103.955 144.379 114.83 126.053 133.811C118.722 141.403 90.0281 153.931 36.9437 128.116Z" fill="#02B3B3"/>
<path opacity="0.2" d="M310.371 112.932C336.917 137.606 407.061 133.811 427.916 71.1737C448.77 8.53647 374.411 -73.0817 374.411 -73.0817H186.72L-55.9506 -67.3874C-88.8124 -34.4871 -153.781 43.4615 -74.9123 114.83C23.6731 204.04 78.8601 176.9 84.3425 173.671C116.572 154.69 145.43 128.117 154.91 92.0527C164.389 55.9889 206.098 38.906 249.703 55.9889C272.478 64.9111 283.826 88.2572 310.371 112.932Z" fill="#33E8E8"/>
</g>
</g>
</g>
<mask id="mask2" mask-type="alpha" maskUnits="userSpaceOnUse" x="413" y="0" width="208" height="121">
<rect x="413" y="0.154785" width="208" height="120" fill="#C4C4C4"/>
</mask>
<g mask="url(#mask2)">
<path d="M575.316 131.695C575.546 131.018 576.07 130.673 576.505 130.763C584.234 129.73 589.61 141.435 597.557 138.907C599.998 138.052 602.899 135.843 603.487 133.428C604.472 128.65 602.289 124.306 598.635 121.379C594.305 118.222 593.947 119.959 590.064 117.71C588.314 116.534 585.171 115.524 584.277 113.709C583.332 111.703 583.64 109.774 585.939 109.161C594.27 106.532 601.843 117.24 609.37 112.362C610.277 111.915 610.444 110.229 611.057 109.449C613.294 104.749 603.957 98.2046 599.459 99.8131C597.402 100.566 595.319 102.763 592.521 102.277C582.825 100.549 589.252 96.169 595.079 93.3855C599.283 91.4447 600.471 90.5124 604.918 88.7122C609.364 86.912 615.691 79.0693 613.341 76.4112C609.713 72.0408 595.044 81.6954 595.044 81.6954C594.469 81.8485 591.466 83.6746 590.789 83.4445C588.132 82.7155 590.726 79.3561 593.013 77.9259C618.659 62.474 611.774 58.9714 610.842 57.783C608.683 55.0739 603.073 59.4417 599.84 61.9449C599.316 62.2897 598.588 61.8679 598.627 61.2419C599.292 57.5753 607.778 49.3627 609.631 47.8429C614.04 43.5897 620.137 33.345 617.071 31.0828C615.513 29.8558 611.552 31.9372 610.887 32.5247C600.805 40.1364 594.849 47.0594 588.369 57.4062C587.896 57.9426 585.864 60.3312 585.468 59.6156C584.013 55.693 584.499 52.8951 581.727 50.9652C580.169 49.7382 576.694 49.0218 574.688 49.9667C572.349 51.2053 569.767 55.3823 569.895 57.401C569.892 66.6381 574.961 77.1925 573.773 78.1249C569.428 80.3083 564.525 71.1465 559.12 73.2019C556.296 74.1594 555.541 78.2603 556.78 80.5986C560.049 86.7065 565.732 93.4028 566.075 100.085C566.19 101.286 565.436 102.308 564.388 102.997C561.526 104.581 558.32 99.4821 555.408 97.7948C550.694 94.74 546.669 98.8911 547.613 103.976C549.106 110.352 553.654 112.014 558.098 116.372C559.708 117.791 561.239 123.54 560.306 125.431C559.104 128.625 574.856 133.049 575.316 131.695Z" fill="#33E8E8" fill-opacity="0.55"/>
<path d="M491.273 143.231C486.117 125.381 482.509 107.633 481.519 88.8858C481.323 86.9665 480.547 85.3902 478.983 84.2017C476.109 81.9881 473.908 82.8985 472.601 84.9238C469.57 89.0642 468.712 93.1722 466.923 102.058C466.804 102.519 466.477 103.026 466.151 103.532C465.407 104.128 464.574 104.308 463.978 103.564C463.337 102.613 463.497 99.3092 463.481 98.223C462.931 86.5725 464.261 91.7343 463.323 79.2957C463.172 77.5847 462.438 73.1662 461.826 71.3367C460.96 69.3439 460.568 65.5053 457.191 66.0154C454.022 66.4805 452.903 75.4397 451.461 76.8402C449.856 78.4939 447.856 73.2586 447.778 70.8779C447.387 67.0393 445.558 56.5362 445.318 54.4087C443.996 44.2323 441.566 41.051 435.189 33.7081C432.298 30.4083 429.251 33.4624 429.149 35.0101C426.428 48.6733 428.443 66.1103 436.046 77.1122C436.985 78.4354 437.434 80.518 436.899 81.0692C436.082 82.335 433.162 79.9132 432.403 79.4231C428.442 77.2257 428.858 77.1359 425.106 74.8937C423.379 73.9583 420.908 73.6191 419.005 74.9012C418.054 75.5422 416.375 77.8656 415.975 79.0416C415.427 81.557 416.489 85.4691 418.187 87.2824C425.324 95.1154 430.939 98.9178 442.809 107.474C444.328 108.454 443.482 110.598 441.771 110.749C437.59 110.561 435.491 109.923 431.979 109.809C430.893 109.825 428.675 109.649 427.115 111.511C425.228 113.879 426.335 118 428.911 119.842C443.79 131.236 464.849 133.889 479.148 145.626C481.01 147.187 482.664 148.792 484.971 149.384C487.278 149.976 490.149 149.139 490.994 146.996C491.513 145.358 491.497 144.272 491.273 143.231Z" fill="#33E8E8" fill-opacity="0.55"/>
<path d="M534.901 63.5342C529.337 65.5073 524.189 72.1996 522.453 78.2643C522.119 76.1994 521.701 73.9238 521.366 71.8589C521.282 71.6481 521.325 71.1426 521.157 70.7211C524.407 66.0065 535.248 55.8246 530.453 49.92C523.878 51.8075 521.51 58.1242 520.577 63.1366C520.323 63.7261 520.238 64.7372 520.152 65.7482C519.609 62.5455 518.56 59.3001 517.721 55.9706C519.366 54.5823 521.813 52.1419 523.249 49.6158C524.515 47.89 528.316 40.2691 522.247 42.1993C519.845 42.9125 517.436 48.5129 516.588 52.5143C515.875 50.1119 515.035 48.0042 514.111 45.6858C514 33.7624 518.191 17.9263 505.561 10.7477C492.552 3.2315 495.476 22.8265 498.124 27.6329C500.31 31.891 505.522 41.2931 512.003 46.5257C512.927 48.8442 513.724 51.4573 514.227 53.9438C514.604 55.5031 514.897 56.8517 515.19 58.2003C511.072 50.3164 502.707 34.8433 495.621 41.5752C489.42 47.4657 509.379 55.8756 515.693 60.6867C516.656 64.9432 517.409 69.2838 518.078 73.4135C518.287 74.5513 518.496 75.6892 518.411 76.7002C516.435 73.5799 515.219 68.6911 512.273 66.2016C509.411 63.9228 502.21 61.1749 500.898 65.8499C499.036 72.2093 509.018 74.5816 513.44 76.4832C516.682 77.8777 517.859 79.6066 518.786 79.4814C519.243 84.917 519.489 90.4365 519.439 95.8293C517.384 88.8328 512.636 78.7572 502.649 80.0505C500.149 91.5492 513.673 91.7773 519.522 97.2619C519.557 102.865 519.086 108.426 518.405 114.071C518.405 114.071 518.194 114.155 518.278 114.366C517.316 108.887 516.649 103.536 513.158 99.0654C509.75 94.8057 501.412 92.2671 502.665 100.316C503.5 106.089 509.353 109.13 513.73 112.759C515.834 114.363 516.885 116.386 518.021 117.399C517.172 122.622 516.112 127.929 514.462 132.983C512.283 123.838 506.746 105.04 495.406 110.292C493.159 121.201 507.391 127.497 513.996 134.878C512.684 139.553 511.161 144.312 509.555 148.86C509.391 144.773 508.596 140.938 507.589 137.187C506.919 134.279 501.074 125.129 495.633 130.473C490.318 135.522 500.547 142.192 503.493 144.682C506.355 146.96 507.574 149.405 508.455 152.229C508.074 153.114 507.694 153.998 507.525 154.798C505.834 159.136 504.227 163.684 502.62 168.232C502.504 159.974 504.377 145.062 492.074 146.057C489.917 152.29 493.78 161.985 497.777 166.498C499.165 168.143 500.386 169.367 501.522 170.379C500.592 172.948 499.745 175.728 499.026 178.213C496.551 170.162 488.641 161.347 484.423 165.47C480.288 169.804 486.809 176.975 489.882 179.17C492.66 181.238 495.565 183.011 497.332 184.994C496.654 188.195 496.186 191.312 495.93 194.345C495.632 196.662 499.719 196.499 500.017 194.182C500.696 189.759 501.671 185.463 502.94 181.293C509.22 179.279 521.394 181.022 525.947 178.963C532.313 175.938 531.856 170.503 525.159 169.019C519.052 167.79 509.735 171.991 504.083 177.419C505.309 173.755 506.536 170.091 507.762 166.427C513.117 163.316 520.361 165.558 525.885 161.647C531.747 157.357 528.932 150.908 521.514 153.131C517.974 154.053 513.209 157.418 509.75 160.994C510.68 158.426 511.821 155.773 512.751 153.204C513.554 150.93 514.358 148.656 515.161 146.382C520.936 144.325 531.677 146.15 534.846 138.781C537.128 133.476 532.415 129.004 526.512 132.577C523.603 134.469 519.765 137.709 516.727 141.117C517.996 136.948 519.182 132.568 520.156 128.272C526.733 125.162 538.905 128.127 543.464 121.181C547.221 115.288 539.093 112.665 533.403 114.933C527.923 117.117 524.04 122.083 520.495 126.671C521.173 123.47 521.852 120.269 522.235 116.941C527.295 113.703 536.776 112.367 540.239 106.347C543.575 100.621 540.045 92.9909 531.865 98.2047C527.564 100.896 524.904 105.864 522.959 110.791C523.259 107.252 523.558 103.713 523.563 100.048C525.04 98.238 527.149 96.1763 529.469 94.0306C532.211 91.7168 535.963 89.4887 536.557 86.0768C537.576 80.0533 531.675 82.4051 528.426 85.8978C525.979 88.3383 524.458 91.8754 523.442 95.4553C523.279 91.3683 523.2 87.4921 522.615 83.5731C526.794 77.5115 542.137 71.8856 534.901 63.5342Z" fill="#33E8E8" fill-opacity="0.55"/>
</g>
<path fill-rule="evenodd" clip-rule="evenodd" d="M499.658 111.049C496.082 111.627 492.62 109.129 492.003 105.314L484.793 60.7334C484.195 57.0382 486.555 53.4763 490.25 52.8787C493.826 52.3003 497.307 54.9175 497.905 58.6127C497.905 58.6127 499.39 67.7912 500.122 72.3208C501.78 82.5721 505.096 103.075 505.096 103.075C505.713 106.889 503.354 110.451 499.658 111.049Z" fill="#339CF7"/>
<path fill-rule="evenodd" clip-rule="evenodd" d="M485.721 107.309C482.145 107.888 478.664 105.271 478.066 101.575L472.842 69.272C472.225 65.4576 474.604 62.0148 478.299 61.4172C481.875 60.8388 485.356 63.4561 485.954 67.1513L491.198 99.5738C491.795 103.269 489.297 106.731 485.721 107.309Z" fill="#4871F7"/>
<path fill-rule="evenodd" clip-rule="evenodd" d="M500.528 74.8235L541.057 68.2687L543.293 82.0959L502.765 88.6508L500.528 74.8235Z" fill="#4871F7"/>
<path fill-rule="evenodd" clip-rule="evenodd" d="M470.127 93.3181L476.564 92.277L474.328 78.4497L467.891 79.4908C464.315 80.0692 461.836 83.6504 462.453 87.4648C463.07 91.2792 466.432 93.9157 470.127 93.3181Z" fill="#339CF7"/>
<path fill-rule="evenodd" clip-rule="evenodd" d="M563.442 94.7396C559.865 95.318 556.384 92.7007 555.787 89.0055L550.562 56.7021C549.945 52.8877 552.324 49.445 556.019 48.8474C559.595 48.269 563.076 50.8862 563.674 54.5815L568.918 87.004C569.516 90.6992 567.018 94.1612 563.442 94.7396Z" fill="#4871F7"/>
<path fill-rule="evenodd" clip-rule="evenodd" d="M551.274 102.701C547.698 103.279 544.236 100.781 543.619 96.9664L536.409 52.3854C535.811 48.6902 538.171 45.1283 541.866 44.5306C545.442 43.9523 548.923 46.5695 549.521 50.2647L556.731 94.8457C557.329 98.541 554.969 102.103 551.274 102.701Z" fill="#339CF7"/>
<path fill-rule="evenodd" clip-rule="evenodd" d="M573.83 76.5454L567.393 77.5864L565.157 63.7592L571.594 62.7181C575.17 62.1397 578.651 64.757 579.268 68.5714C579.885 72.3858 577.406 75.967 573.83 76.5454Z" fill="#339CF7"/>
<path fill-rule="evenodd" clip-rule="evenodd" d="M510.593 22.5323L509.624 13.5151L513.515 21.6927L522.294 20.7621L514.374 24.7341L515.343 33.7512L511.452 25.5736L502.673 26.5042L510.593 22.5323Z" fill="white"/>
<path fill-rule="evenodd" clip-rule="evenodd" d="M472.115 47.7465L471.448 42.1055L473.865 47.2189L479.387 46.5705L474.412 49.0876L475.079 54.7286L472.662 49.6152L467.14 50.2636L472.115 47.7465Z" fill="white"/>
<path fill-rule="evenodd" clip-rule="evenodd" d="M549.325 29.035L548.487 21.5868L551.79 28.3918L559.119 27.5734L552.552 30.8372L553.39 38.2854L550.088 31.4804L542.758 32.2988L549.325 29.035Z" fill="white"/>
</svg>
