<svg xmlns="http://www.w3.org/2000/svg" width="756" height="139" fill="none" viewBox="0 0 756 139"><path fill="#fff" fill-rule="evenodd" d="M706 68C706 68.5523 705.552 69 705 69L687 69C686.448 69 686 68.5523 686 68C686 67.4477 686.448 67 687 67L705 67C705.552 67 706 67.4477 706 68Z" clip-rule="evenodd"/><path fill="#fff" fill-rule="evenodd" d="M695.293 77.7071C694.902 77.3166 694.902 76.6834 695.293 76.2929L703.586 68L695.293 59.7071C694.902 59.3166 694.902 58.6834 695.293 58.2929C695.683 57.9024 696.317 57.9024 696.707 58.2929L705.707 67.2929C706.098 67.6834 706.098 68.3166 705.707 68.7071L696.707 77.7071C696.317 78.0976 695.683 78.0976 695.293 77.7071Z" clip-rule="evenodd"/><rect width="756" height="138" fill="#2555EF" rx="6"/><g opacity=".6"><mask id="mask0" width="756" height="138" x="0" y="0" mask-type="alpha" maskUnits="userSpaceOnUse"><rect width="756" height="138" fill="#C4C4C4" rx="6"/></mask><g mask="url(#mask0)"><path fill="#1E45C7" d="M548.835 106.464C598.886 88.264 737.267 106.463 760.23 201.38L809.519 470.595L207.577 493.224C79.2901 460.994 -152.259 395.776 -52.1572 392.743C72.9705 388.951 36.9489 292.262 135.534 239.177C214.403 196.71 256.007 251.374 279.621 273.303C306.16 297.949 373.656 381.368 431.29 351.034C488.925 320.7 471.101 225.906 482.479 180.405C490.06 153.863 498.784 124.665 548.835 106.464Z" opacity=".2"/><path fill="#6388FF" d="M263.878 34.4247C210.794 2.57404 198.152 -18.0278 220.27 -45.202L780.506 -38.7031L795.673 63.6741C794.41 94.64 735.061 179.388 663.482 186.095C622.084 189.973 591.439 165.24 568.689 131.114C553.631 108.528 545.067 87.1455 516.025 74.238L515.644 74.0684C498.65 66.514 477.642 57.1752 415.544 57.1752C362.46 53.3834 316.963 66.2754 263.878 34.4247Z" opacity=".2"/><path fill="#4871F7" d="M134.056 301.741C168.185 320.699 179.557 383.895 162.495 406.014L-44.1556 417.389L-47.9474 110.258C-47.9474 110.258 30.0861 49.5912 71.4926 89.4029C112.899 129.215 65.4232 172.442 63.9065 201.259C62.0106 237.281 85.88 274.978 134.056 301.741Z" opacity=".2"/><path fill="#1E45C7" d="M36.9431 151.966C-16.1414 126.182 -33.6786 32.5263 -14.7199 -9.18288L-5.24055 -64.1632L558.311 -58.4756L760.407 25.1021C736.393 30.7897 673.805 54.8572 566.448 54.8572C500.326 54.8572 455.934 108.361 435.079 142.487C414.225 176.613 384.31 203.155 355.872 205.051C316.874 207.651 295.204 203.155 270.557 170.925C245.911 138.695 228.848 131.112 196.618 129.216C173.113 127.833 144.379 138.695 126.052 157.654C118.721 165.237 90.0275 177.75 36.9431 151.966Z" opacity=".2"/><path fill="#6388FF" d="M310.372 136.799C336.918 161.445 407.061 157.654 427.916 95.0902C448.77 32.5264 374.411 -48.9962 374.411 -48.9962H186.72L-55.9505 -43.3085C-88.8123 -10.4467 -153.781 67.4105 -74.9122 138.695C23.6732 227.801 78.8603 200.692 84.3427 197.467C116.573 178.509 145.431 151.966 154.91 115.945C164.389 79.9232 206.099 62.8604 249.704 79.9232C272.478 88.835 283.826 112.154 310.372 136.799Z" opacity=".2"/></g></g><mask id="mask1" width="208" height="139" x="413" y="0" mask-type="alpha" maskUnits="userSpaceOnUse"><rect width="208" height="138" x="413" y=".366" fill="#C4C4C4"/></mask><g mask="url(#mask1)"><path fill="#6388FF" fill-opacity=".55" d="M483.141 148.849C478.883 132.672 475.863 116.5 475.244 99.7087C475.155 97.9952 474.571 96.5272 473.167 95.4177C470.491 93.3705 468.679 94.22 467.359 96.0611C464.565 99.7239 463.77 103.49 461.988 111.306C461.929 111.763 461.718 112.199 461.355 112.617C460.648 113.299 459.867 113.353 459.357 112.514C458.694 111.655 459.087 108.611 459.052 107.678C458.713 97.1122 459.798 101.894 459.233 90.6805C459.125 89.1192 458.703 85.1964 457.986 83.5566C457.288 81.7647 456.807 78.2985 453.989 78.5539C450.999 78.9419 449.959 87.0085 448.716 88.2409C447.131 89.7384 445.589 84.8976 445.54 82.8797C445.382 79.3005 443.801 69.9673 443.6 67.9298C442.607 58.8274 440.373 55.754 434.747 48.9937C432.208 45.8811 429.513 48.7828 429.184 50.133C426.509 62.476 427.874 78.2801 434.631 88.2808C435.406 89.464 435.951 91.2364 435.416 91.7863C434.65 92.9254 432.146 90.7456 431.425 90.343C427.683 88.1584 428.16 88.0651 424.703 86.0719C423.26 85.2668 420.844 84.8005 419.145 85.974C418.306 86.4846 416.642 88.5909 416.372 89.4845C415.773 91.7283 416.711 95.2534 418.36 96.8587C424.709 104.022 429.663 107.601 440.253 115.465C441.525 116.403 440.661 118.303 439.272 118.279C435.427 118.092 433.66 117.4 430.444 117.14C429.531 117.022 427.533 116.919 426.079 118.589C424.415 120.695 425.333 124.372 427.44 126.036C440.628 136.557 459.613 139.316 472.286 150.234C473.803 151.668 475.472 153.121 477.564 153.7C479.655 154.279 482.208 153.68 483.072 151.78C483.514 150.754 483.48 149.821 483.141 148.849Z"/><path fill="#6388FF" fill-opacity=".55" d="M609.785 84.0899C604.984 82.674 598.11 84.739 593.892 88.0769C594.694 86.4774 595.543 84.6898 596.345 83.0903C596.393 82.9021 596.674 82.5729 596.77 82.1965C601.353 80.5531 613.873 78.9165 613.533 72.4215C608.081 70.4403 603.303 73.6365 600.16 76.6459C599.691 76.9279 599.128 77.5863 598.564 78.2447C599.791 75.7514 600.692 72.9754 601.78 70.2467C603.601 70.1071 606.498 69.6389 608.744 68.6054C610.474 68.0421 616.888 64.659 611.761 62.9604C609.757 62.2527 605.309 64.9316 602.729 67.2826C603.44 65.2595 603.916 63.3773 604.44 61.307C610.319 52.9818 621.102 44.096 616.025 32.7967C610.857 21.0737 603.076 36.1272 602.492 40.786C601.864 44.8329 600.743 53.9621 602.575 60.8348C602.051 62.9051 601.293 65.1165 600.396 67.0923C599.876 68.3626 599.403 69.4446 598.931 70.5267C600.043 62.9976 602.034 48.0803 593.812 49.2029C586.618 50.1852 596.106 66.0063 598.034 72.5026C596.569 75.9369 594.917 79.3241 593.313 82.523C592.889 83.4168 592.464 84.3107 591.9 84.9691C592.103 81.816 593.711 77.817 592.934 74.6161C592.109 71.6034 588.543 66.094 585.309 68.6798C580.856 72.1587 586.517 78.7993 588.599 82.3308C590.127 84.9205 590.071 86.7088 590.769 87.0859C588.367 91.0843 585.779 95.0354 583.053 98.751C585.137 92.8699 586.913 83.5059 579.418 79.4051C571.96 86.1288 581.121 93.0548 582.394 99.7859C579.619 103.69 576.519 107.311 573.233 110.885C573.233 110.885 573.047 110.838 572.999 111.026C575.075 106.745 577.29 102.699 577.128 97.8518C576.919 93.1924 572.468 87.2588 569.308 93.4684C566.998 97.8904 569.493 102.928 570.682 107.635C571.325 109.801 571.035 111.73 571.308 113.001C568.117 116.199 564.74 119.349 561.084 122.029C564.157 114.595 569.747 98.7869 559.347 96.7544C552.358 103.196 558.975 114.685 559.818 123.11C556.584 125.696 553.163 128.234 549.789 130.585C551.719 127.668 553.088 124.61 554.271 121.505C555.264 119.153 555.825 109.882 549.424 110.865C543.258 111.707 546.942 121.452 547.719 124.653C548.544 127.666 548.159 129.971 547.353 132.371C546.65 132.794 545.948 133.217 545.432 133.687C542.106 135.849 538.733 138.199 535.359 140.55C539.404 134.764 548.136 125.359 539.201 119.892C534.795 123.183 532.417 131.794 533.043 137.159C533.173 138.995 533.399 140.454 533.673 141.725C531.752 143.041 529.783 144.545 528.049 145.909C530.372 139.087 529.35 129.014 524.398 129.763C519.398 130.7 520.289 138.937 521.3 141.997C522.172 144.821 523.279 147.505 523.501 149.764C521.437 151.645 519.56 153.573 517.869 155.548C516.508 157.006 519.392 158.938 520.753 157.48C523.428 154.753 526.242 152.261 529.195 150.004C534.508 151.75 541.986 159.051 546.137 159.902C552.013 160.989 554.415 156.991 550.563 152.611C546.988 148.701 538.501 146.953 531.914 147.889C534.584 145.961 537.255 144.034 539.926 142.107C545.152 142.629 549 147.809 554.742 147.861C560.905 147.819 562.195 141.937 555.998 139.767C553.109 138.635 548.161 138.584 544.002 139.333C545.923 138.017 548.03 136.748 549.951 135.432C551.638 134.257 553.325 133.082 555.011 131.907C559.999 133.37 566.454 140.011 572.307 136.486C576.522 133.949 575.523 128.488 569.69 128.013C566.75 127.869 562.5 128.195 558.714 129.039C561.667 126.782 564.667 124.338 567.481 121.846C573.544 122.98 580.411 131.128 587.007 128.592C592.527 126.385 588.262 120.498 583.227 119.224C578.378 117.996 573.235 119.497 568.513 120.905C570.577 119.025 572.641 117.144 574.565 115.028C579.653 115.314 586.822 119.132 592.203 116.69C597.351 114.388 598.741 107.33 590.527 106.852C586.233 106.566 581.928 108.68 578.134 111.124C580.106 108.82 582.079 106.516 583.913 103.976C585.829 103.46 588.305 103.085 590.968 102.758C594.004 102.525 597.69 102.858 599.802 100.789C603.509 97.1211 598.287 95.7989 594.315 96.5956C591.418 97.0638 588.608 98.7557 586.123 100.73C588.053 97.814 589.934 95.0859 591.49 92.0752C597.292 89.5387 610.576 93.5032 609.785 84.0899Z"/><path fill="#6388FF" fill-opacity=".55" d="M487.78 100.818C486.973 97.0028 486.22 93.4423 485.004 89.5774C482.996 83.2206 483.428 75.8414 483.511 69.3279C483.567 60.1684 482.708 46.6854 487.68 38.7885C490.21 41.3279 490.991 47.5344 491.744 51.0949C493.189 57.3002 493.662 63.3037 493.933 69.613C494.313 76.4309 493.209 83.1499 493.28 89.7649C495.968 88.0296 496.059 82.1776 496.896 79.2246C498.616 72.9115 501.417 67.3087 504.727 61.6031C507.434 56.8146 510.241 51.8733 513.565 47.4907C515.629 44.688 518.792 39.5425 521.789 38.0101C521.899 43.5564 520.118 48.9537 518.183 54.2496C515.946 60.0039 513.917 66.1141 510.654 71.4125C508.898 74.4182 500.99 84.7632 504.144 88.37C514.442 81.7858 521.417 70.1704 530.527 62.3673C537.968 56.094 546.683 49.5638 556.259 47.1028C553.968 52.6029 547.338 58.3149 543.196 62.5973C537.337 68.8166 531.224 75.0874 524.903 81.0023C519.34 86.1016 515.165 92.1142 509.601 97.2135C518.007 90.4803 527.286 84.1017 537.464 80.7236C541.944 79.2901 546.168 77.908 550.802 76.576C552.686 76.0635 555.126 75.0411 556.917 75.3429C554.968 79.3158 548.565 82.3304 545.119 84.8814C539.85 88.8606 534.634 93.0942 528.741 96.0061C522.237 99.1736 515.64 103.155 508.774 105.866C513.734 101.683 524.645 99.8813 531.023 99.2583C535.563 98.7407 543.16 97.6065 547.273 100.092C542.52 104.63 532.636 106.888 526.581 109.037C520.017 111.289 510.85 113.8 503.748 113.508C499.456 113.313 494.13 112 490.983 109.055C488.977 107.736 488.049 102.089 487.78 100.818Z"/></g><path fill="#2ADEDE" d="M448.137 112.531L520.356 124.841C521.529 125.076 522.584 124.255 522.701 123.2L538.059 33.395C538.294 32.2226 537.473 31.1674 536.418 31.0502L464.199 18.6229C463.027 18.3884 461.971 19.2091 461.854 20.2643L446.496 110.069C446.261 111.241 446.965 112.414 448.137 112.531Z"/><path fill="#fff" d="M529.385 39.7252L516.606 114.289C516.371 115.461 515.199 116.282 514.027 116.165L457.049 106.434C455.876 106.2 455.056 105.027 455.173 103.855L467.952 29.291C468.186 28.1186 469.359 27.2979 470.531 27.4152L527.509 37.146C528.681 37.3805 529.502 38.5528 529.385 39.7252Z"/><path fill="#3393EE" d="M493.039 18.7401C493.977 14.9884 497.612 12.5264 501.481 13.2298C505.349 13.9333 508.046 17.4504 507.694 21.3193L514.846 22.4917C515.666 22.6089 516.253 23.4296 516.135 24.2503L514.26 34.919C514.142 35.7397 513.322 36.3259 512.501 36.2086L483.309 31.2846C482.488 31.1673 481.902 30.3467 482.019 29.526L483.895 18.8573C484.012 18.0366 484.833 17.4504 485.653 17.5677L493.039 18.7401ZM499.839 22.7262C501.363 22.9606 502.77 22.0227 503.005 20.4986C503.239 18.9745 502.301 17.5677 500.777 17.3332C499.253 17.0987 497.846 18.0366 497.612 19.5607C497.377 20.9676 498.432 22.3745 499.839 22.7262Z"/><path fill="#94CBFF" d="M484.472 49.7065C486.276 47.6711 486.088 44.5591 484.053 42.7556C482.017 40.9521 478.905 41.14 477.102 43.1754C475.298 45.2107 475.486 48.3227 477.521 50.1262C479.557 51.9298 482.669 51.7418 484.472 49.7065Z"/><path fill="#94CBFF" d="M475.602 74.3525C478.257 74.9389 480.885 73.2617 481.472 70.6063C482.058 67.9509 480.381 65.3229 477.726 64.7364C475.07 64.15 472.442 65.8272 471.856 68.4826C471.269 71.138 472.947 73.766 475.602 74.3525Z"/><path fill="#94CBFF" d="M471.036 97.0582C473.627 97.8858 476.397 96.4566 477.225 93.8661C478.053 91.2756 476.623 88.5047 474.033 87.6772C471.442 86.8496 468.671 88.2788 467.844 90.8693C467.016 93.4598 468.446 96.2307 471.036 97.0582Z"/><path fill="#339CF7" d="M479.804 49.4942L477.403 46.1334C477.262 45.8331 477.272 45.4625 477.572 45.3217L479.082 44.247C479.382 44.1062 479.753 44.1155 479.894 44.4157L480.537 45.3961C480.678 45.6963 481.048 45.7056 481.349 45.5648L486.67 41.8784C486.97 41.7375 487.341 41.7468 487.482 42.0471L488.556 43.5574C488.697 43.8577 488.688 44.2283 488.388 44.3691L480.726 49.7027C480.315 49.8037 479.944 49.7944 479.804 49.4942Z"/><path fill="#339CF7" d="M475.672 72.3093L473.271 68.9485C473.13 68.6483 473.14 68.2776 473.44 68.1368L474.95 67.0621C475.25 66.9213 475.621 66.9306 475.762 67.2308L476.405 68.2112C476.546 68.5114 476.916 68.5207 477.216 68.3799L482.538 64.6935C482.838 64.5527 483.209 64.562 483.35 64.8622L484.424 66.3726C484.565 66.6728 484.556 67.0434 484.256 67.1842L476.594 72.5179C476.183 72.6188 475.852 72.4993 475.672 72.3093Z"/><path fill="#339CF7" d="M471.54 95.125L469.139 91.7641C468.998 91.4639 469.008 91.0933 469.308 90.9525L470.818 89.8778C471.118 89.737 471.489 89.7462 471.63 90.0465L472.273 91.0268C472.414 91.327 472.784 91.3363 473.084 91.1955L478.406 87.5091C478.706 87.3683 479.077 87.3776 479.218 87.6778L480.292 89.1882C480.433 89.4884 480.424 89.859 480.124 89.9999L472.462 95.3335C472.161 95.4743 471.831 95.3548 471.54 95.125Z"/><path fill="#C0E0FC" d="M506.776 44.9477L493.275 42.5255L492.799 45.1796L506.3 47.6018L506.776 44.9477Z"/><path fill="#C0E0FC" d="M518.288 51.8477L492.44 47.2104L491.963 49.8645L517.812 54.5018L518.288 51.8477Z"/><path fill="#C0E0FC" d="M517.499 56.4197L491.65 51.7824L491.174 54.4365L517.023 59.0738L517.499 56.4197Z"/><path fill="#C0E0FC" d="M502.649 68.1315L489.147 65.7093L488.671 68.3634L502.173 70.7856L502.649 68.1315Z"/><path fill="#C0E0FC" d="M514.184 74.9165L488.335 70.2792L487.859 72.9333L513.708 77.5706L514.184 74.9165Z"/><path fill="#C0E0FC" d="M513.372 79.6041L487.523 74.9668L487.047 77.6209L512.896 82.2582L513.372 79.6041Z"/><path fill="#C0E0FC" d="M498.513 90.9535L485.012 88.5314L484.536 91.1855L498.037 93.6076L498.513 90.9535Z"/><path fill="#C0E0FC" d="M510.044 97.7379L484.195 93.1006L483.719 95.7548L509.568 100.392L510.044 97.7379Z"/><path fill="#C0E0FC" d="M509.234 102.424L483.385 97.7869L482.909 100.441L508.758 105.078L509.234 102.424Z"/><path fill="#339CF7" d="M545.327 77.3582L540.755 72.7859C540.051 72.0825 538.996 72.0825 538.293 72.7859L522.7 88.4959C521.996 89.1993 521.996 90.2545 522.7 90.9579L527.272 95.5302C527.976 96.2336 529.031 96.2336 529.734 95.5302L545.327 79.8202C546.03 79.234 546.03 78.0617 545.327 77.3582Z"/><path fill="#94CBFF" d="M522.579 90.5757L527.467 95.4702L498.846 124.05L493.958 119.156L522.579 90.5757Z"/><path fill="#339CF7" d="M491.163 126.833L493.977 119.212L498.784 124.019L491.163 126.833Z"/><path fill="#339CF7" d="M547.788 82.3995L545.209 79.8203L543.685 81.3444L545.092 82.7512L535.947 91.7786C535.126 92.5993 535.126 94.0061 535.947 94.8268L547.671 83.1029C548.023 82.9857 548.023 82.634 547.788 82.3995Z"/><path fill="#fff" stroke="#3393EE" stroke-miterlimit="10" stroke-width="2.5" d="M575.139 77.613C584.821 77.613 592.67 69.764 592.67 60.0818C592.67 50.3996 584.821 42.5506 575.139 42.5506C565.457 42.5506 557.608 50.3996 557.608 60.0818C557.608 69.764 565.457 77.613 575.139 77.613Z"/><path fill="#3393EE" d="M561.935 56.5639C562.208 55.569 561.437 54.49 560.212 54.1539C558.988 53.8178 557.774 54.3518 557.501 55.3467C557.228 56.3416 557.999 57.4206 559.223 57.7567C560.448 58.0928 561.662 57.5587 561.935 56.5639Z"/><path fill="#3393EE" d="M580.979 45.6268C581.315 44.4023 580.781 43.1883 579.786 42.9152C578.791 42.6421 577.712 43.4134 577.376 44.6378C577.04 45.8623 577.574 47.0763 578.569 47.3494C579.564 47.6225 580.643 46.8513 580.979 45.6268Z"/><path fill="#3393EE" d="M572.951 75.5715C573.287 74.347 572.753 73.133 571.758 72.8599C570.763 72.5868 569.684 73.358 569.348 74.5825C569.012 75.807 569.546 77.021 570.541 77.2941C571.536 77.5672 572.615 76.7959 572.951 75.5715Z"/><path fill="#3393EE" d="M592.59 64.9178C592.863 63.923 592.092 62.844 590.868 62.5079C589.643 62.1717 588.429 62.7058 588.156 63.7007C587.883 64.6955 588.654 65.7745 589.879 66.1106C591.103 66.4467 592.317 65.9127 592.59 64.9178Z"/><path stroke="#2ADEDE" stroke-linecap="round" stroke-linejoin="round" stroke-miterlimit="10" stroke-width="1.942" d="M590.085 61.4993L591.666 65.5228C591.666 65.6665 591.953 65.6665 592.097 65.6665L595.114 62.6489"/><path fill="#81BDF3" d="M575.715 60.5125L574.278 60.0814L576.146 53.1839C576.289 52.8965 576.577 52.6091 576.864 52.7528L577.152 52.8965C577.439 53.0402 577.726 53.3276 577.583 53.615L575.715 60.5125Z"/><path fill="#81BDF3" d="M573.272 60.3683L573.703 58.9313L580.6 60.7994C580.888 60.9431 581.175 61.2305 581.031 61.5179L580.888 61.8053C580.744 62.0927 580.457 62.3801 580.169 62.2364L573.272 60.3683Z"/><path fill="#3393EE" d="M575.14 61.949C576.171 61.949 577.008 61.1126 577.008 60.0809C577.008 59.0492 576.171 58.2128 575.14 58.2128C574.108 58.2128 573.272 59.0492 573.272 60.0809C573.272 61.1126 574.108 61.949 575.14 61.949Z"/><path stroke="#2ADEDE" stroke-linecap="round" stroke-linejoin="round" stroke-miterlimit="10" stroke-width="2.5" d="M591.953 64.6799C594.539 55.3395 589.079 45.7118 579.738 43.2689"/></svg>