<svg width="756" height="120" viewBox="0 0 756 120" fill="none" xmlns="http://www.w3.org/2000/svg">
<rect width="756" height="120" rx="6" fill="#EF8A24"/>
<g opacity="0.7">
<mask id="mask0" mask-type="alpha" maskUnits="userSpaceOnUse" x="0" y="0" width="756" height="120">
<rect width="756" height="120" rx="6" fill="#02C7C7"/>
</mask>
<g mask="url(#mask0)">
<mask id="mask1" mask-type="alpha" maskUnits="userSpaceOnUse" x="0" y="0" width="756" height="331">
<rect width="756" height="330.437" fill="#C4C4C4"/>
</mask>
<g mask="url(#mask1)">
<path opacity="0.1" d="M548.833 82.4204C598.884 64.2296 737.265 82.4191 760.228 177.285L809.517 446.358L207.576 468.975C79.2881 436.762 -152.261 371.579 -52.1591 368.547C72.9685 364.757 36.9469 268.119 135.532 215.063C214.401 172.618 256.006 227.253 279.619 249.17C306.158 273.804 373.654 357.178 431.289 326.86C488.923 296.542 471.099 201.799 482.477 156.322C490.058 129.794 498.782 100.611 548.833 82.4204Z" fill="#C96500"/>
<path opacity="0.1" d="M263.879 10.4187C210.794 -21.415 198.152 -42.006 220.271 -69.1657L780.507 -62.6703L795.674 39.6526C794.41 70.6021 735.062 155.306 663.483 162.008C622.084 165.885 591.44 141.165 568.689 107.057C553.632 84.4832 545.067 63.1116 516.026 50.211L515.644 50.0414C498.65 42.491 477.643 33.1572 415.545 33.1572C362.46 29.3674 316.963 42.2525 263.879 10.4187Z" fill="#FFBB78"/>
<path opacity="0.1" d="M134.055 277.594C168.184 296.542 179.556 359.705 162.493 381.811L-44.1567 393.181L-47.9485 86.2119C-47.9485 86.2119 30.085 25.5777 71.4915 65.3683C112.898 105.159 65.4221 148.363 63.9054 177.166C62.0095 213.168 85.8789 250.845 134.055 277.594Z" fill="#FFBB78"/>
<path opacity="0.1" d="M36.9438 127.898C-16.1406 102.128 -33.6779 8.52164 -14.7192 -33.1655L-5.23982 -88.1167L558.311 -82.432L760.408 1.10134C736.393 6.78595 673.806 30.8407 566.449 30.8407C500.326 30.8407 455.935 84.3164 435.08 118.424C414.225 152.532 384.31 179.06 355.872 180.955C316.874 183.553 295.204 179.06 270.558 146.847C245.912 114.634 228.849 107.055 196.619 105.16C173.114 103.778 144.379 114.634 126.053 133.583C118.722 141.162 90.0282 153.669 36.9438 127.898Z" fill="#C96500"/>
<path opacity="0.1" d="M310.372 112.74C336.918 137.372 407.061 133.583 427.916 71.0526C448.77 8.52188 374.411 -72.9575 374.411 -72.9575H186.72L-55.9504 -67.2729C-88.8122 -34.4285 -153.78 43.3875 -74.9121 114.635C23.6733 203.693 78.8603 176.599 84.3428 173.375C116.573 154.427 145.431 127.899 154.91 91.8961C164.389 55.8936 206.099 38.8398 249.704 55.8936C272.478 64.8006 283.826 88.107 310.372 112.74Z" fill="#FFDFB1"/>
</g>
</g>
</g>
<mask id="mask2" mask-type="alpha" maskUnits="userSpaceOnUse" x="415" y="0" width="208" height="120">
<rect x="415" width="208" height="120" fill="#C4C4C4"/>
</mask>
<g mask="url(#mask2)">
<path d="M495.159 137.476C489.325 119.836 485.042 102.239 483.337 83.543C483.068 81.6325 482.232 80.087 480.624 78.9591C477.667 76.8569 475.502 77.8507 474.274 79.9245C471.404 84.1776 470.703 88.3153 469.254 97.2628C469.154 97.7284 468.846 98.2469 468.539 98.7653C467.819 99.3894 466.994 99.6006 466.37 98.8807C465.693 97.9543 465.726 94.6471 465.668 93.5623C464.674 81.9414 466.201 87.0485 464.788 74.6548C464.572 72.9508 463.669 68.5636 462.988 66.7589C462.047 64.8005 461.509 60.9797 458.153 61.6184C455.005 62.2043 454.228 71.1997 452.841 72.6542C451.3 74.368 449.101 69.2129 448.933 66.8369C448.395 63.0161 446.167 52.5905 445.845 50.4737C444.135 40.3553 441.586 37.269 434.933 30.1751C431.918 26.9881 428.99 30.1564 428.947 31.7068C426.75 45.4641 429.43 62.8113 437.447 73.5148C438.436 74.8011 438.964 76.8651 438.45 77.4364C437.683 78.7325 434.673 76.4239 433.895 75.9631C429.853 73.9187 430.266 73.813 426.431 71.7157C424.669 70.8471 422.187 70.6025 420.334 71.9563C419.408 72.6332 417.82 75.0189 417.464 76.2094C417.013 78.7439 418.223 82.6126 419.99 84.3597C427.421 91.9144 433.177 95.4995 445.365 103.596C446.92 104.518 446.157 106.692 444.453 106.908C440.267 106.88 438.146 106.323 434.632 106.343C433.547 106.4 431.325 106.309 429.837 108.23C428.042 110.668 429.305 114.743 431.95 116.486C447.253 127.304 468.398 129.15 483.135 140.333C485.055 141.821 486.769 143.361 489.097 143.865C491.425 144.369 494.262 143.423 495.025 141.248C495.481 139.592 495.423 138.508 495.159 137.476Z" fill="#FFDFB1" fill-opacity="0.25"/>
<path d="M603.114 79.8389C597.89 77.0885 589.481 77.844 583.847 80.6823C585.138 79.0361 586.526 77.1852 587.817 75.539C587.915 75.3343 588.315 75.0229 588.511 74.6135C594.18 73.8043 609.015 74.8649 610.101 67.3363C604.255 63.7849 598.007 66.3294 593.691 69.0432C593.086 69.2567 592.285 69.8796 591.484 70.5024C593.469 67.9308 595.142 64.9586 597.02 62.0844C599.156 62.3516 602.609 62.4944 605.439 61.8361C607.566 61.5961 615.744 59.2209 610.209 56.07C608.056 54.7883 602.307 56.8167 598.791 58.9076C600.073 56.7541 601.052 54.7074 602.129 52.456C610.816 44.2875 625.295 36.6269 622.004 22.4768C618.704 7.81951 606.288 23.2583 604.552 28.4641C602.905 32.958 599.532 43.165 600.082 51.4769C599.005 53.7283 597.626 56.0864 596.139 58.142C595.249 59.4768 594.457 60.6069 593.665 61.737C596.665 53.3632 602.362 36.7223 592.609 36.0805C584.075 35.5189 591.432 55.89 592.179 63.7925C589.704 67.3875 587.025 70.8846 584.444 74.177C583.75 75.1025 583.056 76.0279 582.255 76.6508C583.207 73.0823 585.975 68.8733 585.807 65.0199C585.54 61.3712 582.675 54.216 578.35 56.4225C572.414 59.3675 577.441 68.3117 579.042 72.8505C580.217 76.1789 579.745 78.2168 580.466 78.8131C576.781 82.8351 572.892 86.7592 568.895 90.3808C572.643 84.125 576.826 73.8024 569.103 67.3408C558.957 73.3021 567.962 83.3948 567.899 91.413C563.805 95.2392 559.399 98.6649 554.789 101.993C554.789 101.993 554.584 101.895 554.486 102.099C557.86 97.6769 561.34 93.557 562.257 87.9595C563.076 82.5666 559.286 74.7172 554.222 81.0973C550.546 85.6266 552.28 91.9897 552.582 97.6674C552.831 100.302 552.057 102.446 552.083 103.968C547.669 106.886 543.05 109.707 538.218 111.922C543.46 104.118 553.518 87.3 541.967 82.5288C532.427 88.2766 537.453 103.005 536.509 112.865C532.184 115.072 527.654 117.181 523.222 119.085C526.114 116.193 528.393 113.007 530.467 109.723C532.149 107.259 534.909 96.7578 527.291 96.3832C519.976 95.9019 522.013 107.943 522.181 111.796C522.448 115.445 521.478 117.999 520 120.562C519.092 120.882 518.185 121.202 517.481 121.62C513.147 123.32 508.715 125.223 504.283 127.127C510.273 121.441 522.502 112.704 513.425 104.338C507.382 106.98 502.878 116.395 502.273 122.393C502.005 124.529 501.934 126.255 501.961 127.777C499.442 128.836 496.826 130.099 494.512 131.256C498.748 123.976 499.862 112.185 493.971 111.882C487.982 111.783 487.135 121.439 487.606 125.186C487.971 128.63 488.638 131.967 488.38 134.61C485.567 136.283 482.96 138.053 480.557 139.922C478.652 141.274 481.544 144.167 483.449 142.814C487.16 140.314 490.978 138.116 494.903 136.221C500.642 139.47 507.618 149.598 512.219 151.548C518.759 154.174 522.444 150.152 518.992 144.224C515.753 138.902 506.347 134.906 498.525 134.433C502.049 132.849 505.573 131.266 509.098 129.682C515.015 131.507 518.281 138.351 524.901 139.758C532.029 141.156 534.86 134.713 528.195 130.77C525.116 128.794 519.412 127.574 514.437 127.458C516.956 126.399 519.679 125.438 522.198 124.379C524.414 123.428 526.63 122.476 528.846 121.524C534.274 124.372 540.218 133.503 547.782 130.834C553.229 128.913 553.318 122.416 546.689 120.502C543.325 119.647 538.341 119.024 533.776 119.104C537.701 117.208 541.724 115.109 545.542 112.911C552.287 115.635 558.364 126.59 566.56 125.23C573.439 123.993 569.854 116.242 564.328 113.598C559.006 111.053 552.723 111.568 546.948 112.075C549.76 110.402 552.572 108.729 555.278 106.754C561.089 108.276 568.501 114.337 575.274 112.799C581.744 111.366 584.957 103.598 575.578 101.123C570.683 99.7874 565.228 101.202 560.289 103.115C563.092 100.935 565.896 98.7546 568.592 96.272C570.924 96.1299 573.869 96.2815 577.02 96.531C580.579 96.9763 584.762 98.2227 587.672 96.3453C592.789 93.0086 587.059 90.267 582.289 90.2487C578.836 90.106 575.205 91.3871 571.885 93.0686C574.778 90.1767 577.572 87.4895 580.056 84.4017C587.344 83.3613 601.885 90.8204 603.114 79.8389Z" fill="#FFDFB1" fill-opacity="0.25"/>
</g>
<path d="M539.489 94.2848L471.692 111.766C470.645 112.031 469.583 111.414 469.318 110.366L448.308 28.8849C448.044 27.837 448.66 26.7751 449.708 26.5105L517.485 9.02802C518.533 8.76344 519.595 9.3797 519.86 10.4276L540.888 91.9103C541.153 92.9583 540.537 94.0202 539.489 94.2848Z" fill="#1483E3"/>
<path d="M537.636 91.8359L471.897 108.804C471.707 108.847 471.508 108.74 471.465 108.549L451.19 29.983C451.147 29.7928 451.254 29.5943 451.445 29.5513L517.184 12.5832C517.374 12.5402 517.572 12.6475 517.615 12.8377L537.891 91.4041C537.952 91.5956 537.845 91.7941 537.636 91.8359Z" fill="white"/>
<path d="M533.688 90.7206L469.666 107.227C468.675 107.477 467.649 106.882 467.399 105.891L446.858 26.2952C446.609 25.3045 447.204 24.2785 448.194 24.0287L512.218 7.50374C513.209 7.25394 514.235 7.84899 514.484 8.83971L535.026 88.4355C535.293 89.4461 534.68 90.4521 533.688 90.7206Z" fill="#339CF7"/>
<path d="M453.27 31.8488C454.094 31.9057 454.807 31.2844 454.864 30.4612C454.921 29.6381 454.3 28.9246 453.476 28.8677C452.653 28.8109 451.94 29.4321 451.883 30.2553C451.826 31.0785 452.447 31.7919 453.27 31.8488Z" fill="#94CBFF"/>
<path d="M455.18 39.4501C456.003 39.507 456.716 38.8858 456.773 38.0626C456.83 37.2394 456.209 36.526 455.386 36.4691C454.562 36.4122 453.849 37.0334 453.792 37.8566C453.735 38.6798 454.357 39.3933 455.18 39.4501Z" fill="#94CBFF"/>
<path d="M457.105 47.0716C457.929 47.1285 458.642 46.5072 458.699 45.684C458.756 44.8608 458.135 44.1474 457.311 44.0905C456.488 44.0337 455.775 44.6549 455.718 45.4781C455.661 46.3013 456.282 47.0147 457.105 47.0716Z" fill="#94CBFF"/>
<path d="M459.014 54.6729C459.837 54.7297 460.551 54.1085 460.608 53.2853C460.665 52.4621 460.043 51.7487 459.22 51.6918C458.397 51.6349 457.684 52.2562 457.627 53.0794C457.57 53.9026 458.191 54.616 459.014 54.6729Z" fill="#94CBFF"/>
<path d="M460.922 62.2741C461.746 62.331 462.459 61.7097 462.516 60.8866C462.573 60.0634 461.952 59.3499 461.128 59.2931C460.305 59.2362 459.592 59.8574 459.535 60.6806C459.478 61.5038 460.099 62.2172 460.922 62.2741Z" fill="#94CBFF"/>
<path d="M462.85 69.8766C463.673 69.9335 464.386 69.3123 464.443 68.4891C464.5 67.6659 463.879 66.9525 463.055 66.8956C462.232 66.8387 461.519 67.4599 461.462 68.2831C461.405 69.1063 462.026 69.8198 462.85 69.8766Z" fill="#94CBFF"/>
<path d="M464.757 77.4968C465.58 77.5537 466.294 76.9325 466.35 76.1093C466.407 75.2861 465.786 74.5727 464.963 74.5158C464.14 74.4589 463.426 75.0801 463.369 75.9033C463.313 76.7265 463.934 77.44 464.757 77.4968Z" fill="#94CBFF"/>
<path d="M466.684 85.0994C467.507 85.1562 468.221 84.535 468.278 83.7118C468.334 82.8886 467.713 82.1752 466.89 82.1183C466.067 82.0615 465.353 82.6827 465.297 83.5059C465.24 84.3291 465.861 85.0425 466.684 85.0994Z" fill="#94CBFF"/>
<path d="M468.592 92.7006C469.415 92.7575 470.129 92.1363 470.186 91.3131C470.243 90.4899 469.621 89.7764 468.798 89.7196C467.975 89.6627 467.262 90.2839 467.205 91.1071C467.148 91.9303 467.769 92.6437 468.592 92.7006Z" fill="#94CBFF"/>
<path d="M470.501 100.302C471.324 100.359 472.038 99.7375 472.095 98.9144C472.151 98.0912 471.53 97.3777 470.707 97.3209C469.884 97.264 469.17 97.8852 469.114 98.7084C469.057 99.5316 469.678 100.245 470.501 100.302Z" fill="#94CBFF"/>
<path fill-rule="evenodd" clip-rule="evenodd" d="M454.129 30.0801C454.264 30.6203 453.936 31.1676 453.395 31.3025L447.7 32.7249C447.159 32.8598 446.612 32.5313 446.477 31.991C446.342 31.4508 446.671 30.9034 447.211 30.7685L452.907 29.3461C453.447 29.2112 453.994 29.5398 454.129 30.0801Z" fill="#2555EF"/>
<path fill-rule="evenodd" clip-rule="evenodd" d="M456.056 37.6794C456.192 38.2193 455.865 38.7676 455.325 38.9041L449.628 40.3451C449.089 40.4817 448.54 40.1548 448.404 39.6149C448.267 39.0751 448.594 38.5268 449.134 38.3902L454.831 36.9492C455.371 36.8127 455.919 37.1396 456.056 37.6794Z" fill="#2555EF"/>
<path fill-rule="evenodd" clip-rule="evenodd" d="M457.964 45.2807C458.1 45.8205 457.773 46.3688 457.234 46.5054L451.537 47.9464C450.997 48.0829 450.448 47.756 450.312 47.2162C450.175 46.6763 450.502 46.128 451.042 45.9915L456.739 44.5505C457.279 44.4139 457.827 44.7408 457.964 45.2807Z" fill="#2555EF"/>
<path fill-rule="evenodd" clip-rule="evenodd" d="M459.891 52.8845C460.027 53.4245 459.7 53.9725 459.16 54.1085L453.444 55.5482C452.904 55.6842 452.356 55.3568 452.22 54.8168C452.084 54.2768 452.412 53.7288 452.952 53.5928L458.667 52.1531C459.207 52.0171 459.755 52.3445 459.891 52.8845Z" fill="#2555EF"/>
<path fill-rule="evenodd" clip-rule="evenodd" d="M461.799 60.5064C461.934 61.0466 461.605 61.5939 461.065 61.7288L455.369 63.1512C454.829 63.2861 454.282 62.9576 454.147 62.4173C454.012 61.8771 454.341 61.3297 454.881 61.1948L460.577 59.7724C461.117 59.6375 461.664 59.9661 461.799 60.5064Z" fill="#2555EF"/>
<path fill-rule="evenodd" clip-rule="evenodd" d="M463.707 68.1046C463.843 68.6445 463.516 69.1928 462.976 69.3293L457.279 70.7704C456.739 70.9069 456.191 70.58 456.055 70.0401C455.918 69.5003 456.245 68.952 456.785 68.8154L462.482 67.3744C463.022 67.2379 463.57 67.5648 463.707 68.1046Z" fill="#2555EF"/>
<path fill-rule="evenodd" clip-rule="evenodd" d="M465.634 75.7072C465.77 76.247 465.443 76.7953 464.903 76.9319L459.206 78.3729C458.667 78.5094 458.118 78.1825 457.982 77.6427C457.845 77.1028 458.172 76.5545 458.712 76.418L464.409 74.977C464.949 74.8404 465.497 75.1673 465.634 75.7072Z" fill="#2555EF"/>
<path fill-rule="evenodd" clip-rule="evenodd" d="M467.542 83.3085C467.679 83.8483 467.352 84.3966 466.812 84.5332L461.115 85.9742C460.575 86.1107 460.027 85.7838 459.891 85.244C459.754 84.7041 460.081 84.1558 460.621 84.0193L466.318 82.5783C466.858 82.4417 467.406 82.7686 467.542 83.3085Z" fill="#2555EF"/>
<path fill-rule="evenodd" clip-rule="evenodd" d="M469.451 90.9313C469.586 91.4715 469.257 92.0189 468.717 92.1538L463.021 93.5762C462.481 93.7111 461.933 93.3825 461.799 92.8423C461.664 92.302 461.992 91.7547 462.532 91.6198L468.228 90.1974C468.768 90.0625 469.316 90.3911 469.451 90.9313Z" fill="#2555EF"/>
<path fill-rule="evenodd" clip-rule="evenodd" d="M471.377 98.5312C471.513 99.071 471.187 99.6193 470.647 99.7559L464.95 101.197C464.41 101.333 463.862 101.007 463.725 100.467C463.588 99.9269 463.915 99.3786 464.455 99.242L470.152 97.801C470.692 97.6644 471.24 97.9914 471.377 98.5312Z" fill="#2555EF"/>
<rect x="463.818" y="30.4312" width="44.0358" height="13.4831" rx="1" transform="rotate(-14.3807 463.818 30.4312)" fill="white"/>
<path d="M562.65 114.349L494.787 97.109C493.74 96.8511 493.119 95.786 493.377 94.7396L514.11 13.173C514.368 12.1266 515.433 11.5052 516.479 11.7631L584.342 29.0029C585.388 29.2608 586.01 30.326 585.752 31.3724L565.019 112.939C564.743 113.984 563.696 114.607 562.65 114.349Z" fill="#224EE0"/>
<path d="M562.195 111.329L496.388 94.6023C496.187 94.5477 496.072 94.3505 496.125 94.1676L516.12 15.5371C516.175 15.3356 516.372 15.2212 516.555 15.2743L582.362 32.0013C582.564 32.056 582.678 32.2532 582.625 32.4361L562.649 111.068C562.596 111.251 562.398 111.365 562.195 111.329Z" fill="white"/>
<path d="M559.274 108.437L495.191 92.1573C494.2 91.9041 493.592 90.8963 493.847 89.8872L514.08 10.2273C514.333 9.23676 515.341 8.62919 516.35 8.88394L580.435 25.1455C581.426 25.3987 582.033 26.4064 581.778 27.4156L561.546 107.075C561.291 108.085 560.283 108.692 559.274 108.437Z" fill="#2555EF"/>
<path d="M517.733 18.3927C518.555 18.4628 519.278 17.8531 519.348 17.031C519.418 16.2088 518.809 15.4854 517.986 15.4153C517.164 15.3452 516.441 15.9549 516.371 16.777C516.301 17.5992 516.91 18.3226 517.733 18.3927Z" fill="#6388FF"/>
<path d="M515.754 25.984C516.577 26.0541 517.3 25.4444 517.37 24.6223C517.44 23.8001 516.83 23.0768 516.008 23.0066C515.186 22.9365 514.463 23.5462 514.393 24.3684C514.323 25.1905 514.932 25.9139 515.754 25.984Z" fill="#6388FF"/>
<path d="M513.776 33.575C514.598 33.6451 515.322 33.0354 515.392 32.2133C515.462 31.3911 514.852 30.6677 514.03 30.5976C513.208 30.5275 512.485 31.1372 512.415 31.9593C512.344 32.7815 512.954 33.5049 513.776 33.575Z" fill="#6388FF"/>
<path d="M511.798 41.1663C512.62 41.2364 513.344 40.6267 513.414 39.8046C513.484 38.9824 512.874 38.259 512.052 38.1889C511.23 38.1188 510.507 38.7285 510.436 39.5507C510.366 40.3728 510.976 41.0962 511.798 41.1663Z" fill="#6388FF"/>
<path d="M509.82 48.7576C510.642 48.8277 511.365 48.218 511.436 47.3959C511.506 46.5737 510.896 45.8504 510.074 45.7802C509.252 45.7101 508.528 46.3198 508.458 47.142C508.388 47.9641 508.998 48.6875 509.82 48.7576Z" fill="#6388FF"/>
<path d="M507.842 56.3489C508.664 56.419 509.387 55.8093 509.457 54.9872C509.528 54.165 508.918 53.4417 508.096 53.3715C507.274 53.3014 506.55 53.9111 506.48 54.7333C506.41 55.5554 507.02 56.2788 507.842 56.3489Z" fill="#6388FF"/>
<path d="M505.864 63.9399C506.686 64.01 507.409 63.4003 507.479 62.5782C507.549 61.756 506.94 61.0327 506.118 60.9625C505.295 60.8924 504.572 61.5021 504.502 62.3243C504.432 63.1464 505.042 63.8698 505.864 63.9399Z" fill="#6388FF"/>
<path d="M503.885 71.5311C504.707 71.6012 505.43 70.9916 505.501 70.1694C505.571 69.3472 504.961 68.6239 504.139 68.5538C503.317 68.4837 502.593 69.0933 502.523 69.9155C502.453 70.7377 503.063 71.461 503.885 71.5311Z" fill="#6388FF"/>
<path d="M501.907 79.1225C502.73 79.1926 503.453 78.5829 503.523 77.7608C503.593 76.9386 502.984 76.2153 502.161 76.1451C501.339 76.075 500.616 76.6847 500.546 77.5069C500.476 78.329 501.085 79.0524 501.907 79.1225Z" fill="#6388FF"/>
<path d="M499.948 86.715C500.77 86.7852 501.493 86.1755 501.563 85.3533C501.633 84.5312 501.024 83.8078 500.202 83.7377C499.379 83.6676 498.656 84.2772 498.586 85.0994C498.516 85.9216 499.125 86.6449 499.948 86.715Z" fill="#6388FF"/>
<path fill-rule="evenodd" clip-rule="evenodd" d="M511.024 15.0261C511.164 14.4872 511.714 14.164 512.253 14.3041L517.938 15.7823C518.476 15.9224 518.8 16.4729 518.66 17.0118C518.519 17.5507 517.969 17.874 517.43 17.7339L511.746 16.2557C511.207 16.1155 510.883 15.565 511.024 15.0261Z" fill="#94CBFF"/>
<path fill-rule="evenodd" clip-rule="evenodd" d="M509.045 22.6174C509.186 22.0785 509.736 21.7553 510.275 21.8954L515.959 23.3736C516.498 23.5137 516.822 24.0642 516.681 24.6031C516.541 25.142 515.991 25.4653 515.452 25.3252L509.767 23.847C509.229 23.7068 508.905 23.1564 509.045 22.6174Z" fill="#94CBFF"/>
<path fill-rule="evenodd" clip-rule="evenodd" d="M507.067 30.2084C507.207 29.6695 507.758 29.3462 508.297 29.4864L513.981 30.9646C514.52 31.1047 514.844 31.6552 514.703 32.1941C514.563 32.733 514.013 33.0563 513.474 32.9162L507.789 31.438C507.25 31.2978 506.927 30.7473 507.067 30.2084Z" fill="#94CBFF"/>
<path fill-rule="evenodd" clip-rule="evenodd" d="M505.089 37.7997C505.229 37.2608 505.78 36.9376 506.319 37.0777L512.003 38.5559C512.542 38.696 512.865 39.2465 512.725 39.7854C512.585 40.3243 512.035 40.6476 511.496 40.5075L505.811 39.0293C505.272 38.8891 504.949 38.3387 505.089 37.7997Z" fill="#94CBFF"/>
<path fill-rule="evenodd" clip-rule="evenodd" d="M503.111 45.3916C503.251 44.8526 503.801 44.529 504.34 44.6689L510.043 46.1486C510.582 46.2885 510.906 46.8388 510.766 47.3778C510.626 47.9168 510.076 48.2403 509.537 48.1005L503.834 46.6207C503.295 46.4809 502.971 45.9306 503.111 45.3916Z" fill="#94CBFF"/>
<path fill-rule="evenodd" clip-rule="evenodd" d="M501.133 52.9826C501.273 52.4436 501.823 52.12 502.362 52.2599L508.065 53.7396C508.604 53.8795 508.928 54.4298 508.788 54.9688C508.648 55.5078 508.098 55.8313 507.559 55.6915L501.855 54.2117C501.316 54.0719 500.993 53.5216 501.133 52.9826Z" fill="#94CBFF"/>
<path fill-rule="evenodd" clip-rule="evenodd" d="M499.173 60.5749C499.313 60.036 499.864 59.7127 500.403 59.8529L506.087 61.3311C506.626 61.4712 506.949 62.0217 506.809 62.5606C506.669 63.0995 506.118 63.4228 505.58 63.2826L499.895 61.8044C499.356 61.6643 499.033 61.1138 499.173 60.5749Z" fill="#94CBFF"/>
<path fill-rule="evenodd" clip-rule="evenodd" d="M497.195 68.1662C497.335 67.6273 497.885 67.304 498.424 67.4442L504.109 68.9224C504.648 69.0625 504.971 69.613 504.831 70.1519C504.691 70.6908 504.14 71.0141 503.601 70.8739L497.917 69.3957C497.378 69.2556 497.055 68.7051 497.195 68.1662Z" fill="#94CBFF"/>
<path fill-rule="evenodd" clip-rule="evenodd" d="M495.217 75.7575C495.357 75.2186 495.907 74.8953 496.446 75.0355L502.131 76.5137C502.67 76.6538 502.993 77.2043 502.853 77.7432C502.713 78.2821 502.162 78.6054 501.623 78.4652L495.939 76.987C495.4 76.8469 495.077 76.2964 495.217 75.7575Z" fill="#94CBFF"/>
<path fill-rule="evenodd" clip-rule="evenodd" d="M493.239 83.3485C493.379 82.8096 493.929 82.4863 494.468 82.6265L500.153 84.1047C500.692 84.2448 501.015 84.7953 500.875 85.3342C500.735 85.8731 500.184 86.1964 499.645 86.0562L493.961 84.578C493.422 84.4379 493.098 83.8874 493.239 83.3485Z" fill="#94CBFF"/>
<rect x="526.093" y="21.9" width="44.0358" height="13.4831" rx="1" transform="rotate(14.2143 526.093 21.9)" fill="#339CF7"/>
<path d="M584.143 54.6323L586.025 57.5689C586.59 58.4618 586.341 59.6425 585.448 60.2074L582.411 62.17L578.455 55.9896L581.492 54.027C582.377 53.4828 583.558 53.7317 584.143 54.6323Z" fill="#94CBFF"/>
<path d="M524.771 94.8879L533.34 93.7727L529.383 87.5923L524.771 94.8879Z" fill="#94CBFF"/>
<path d="M578.962 55.6934L529.386 87.5926L533.357 93.7641L582.933 61.8649L578.962 55.6934Z" fill="#1483E3"/>
<path d="M580.277 57.6811L530.7 89.5803L531.98 91.5693L581.557 59.6701L580.277 57.6811Z" fill="#339CF7"/>
</svg>
