<svg xmlns="http://www.w3.org/2000/svg" width="756" height="138" fill="none" viewBox="0 0 756 138"><rect width="756" height="138" fill="#EF8A24" rx="6"/><g opacity=".7"><mask id="mask0" width="756" height="138" x="0" y="0" mask-type="alpha" maskUnits="userSpaceOnUse"><rect width="756" height="138" fill="#02C7C7" rx="6"/></mask><g mask="url(#mask0)"><mask id="mask1" width="756" height="381" x="0" y="0" mask-type="alpha" maskUnits="userSpaceOnUse"><rect width="756" height="380.003" fill="#C4C4C4"/></mask><g mask="url(#mask1)"><path fill="#C96500" d="M548.833 94.7834C598.884 73.8641 737.265 94.782 760.228 203.878L809.517 513.312L207.576 539.321C79.2881 502.277 -152.261 427.316 -52.1591 423.829C72.9685 419.471 36.9469 308.337 135.532 247.322C214.401 198.51 256.006 261.341 279.619 286.546C306.158 314.874 373.654 410.755 431.289 375.889C488.923 341.023 471.099 232.068 482.477 179.77C490.058 149.263 498.782 115.703 548.833 94.7834Z" opacity=".1"/><path fill="#FFBB78" d="M263.879 11.9816C210.794 -24.6273 198.152 -48.3069 220.271 -79.5406L780.507 -72.0708L795.674 45.6005C794.41 81.1924 735.062 178.601 663.483 186.309C622.084 190.768 591.44 162.339 568.689 123.116C553.632 97.1557 545.067 72.5783 516.026 57.7426L515.644 57.5476C498.65 48.8646 477.643 38.1307 415.545 38.1307C362.46 33.7725 316.963 48.5904 263.879 11.9816Z" opacity=".1"/><path fill="#FFBB78" d="M134.055 319.233C168.184 341.024 179.556 413.66 162.493 439.083L-44.1567 452.158L-47.9485 99.1436C-47.9485 99.1436 30.085 29.4143 71.4915 75.1735C112.898 120.933 65.4221 170.618 63.9054 203.74C62.0095 245.143 85.8789 288.472 134.055 319.233Z" opacity=".1"/><path fill="#C96500" d="M36.9438 147.083C-16.1406 117.447 -33.6779 9.79989 -14.7192 -38.1403L-5.23982 -101.334L558.311 -94.7969L760.408 1.26654C736.393 7.80384 673.806 35.4668 566.449 35.4668C500.326 35.4668 455.935 96.9638 435.08 136.188C414.225 175.411 384.31 205.919 355.872 208.098C316.874 211.086 295.204 205.919 270.558 168.874C245.912 131.829 228.849 123.113 196.619 120.934C173.114 119.345 144.379 131.829 126.053 153.62C118.722 162.337 90.0282 176.719 36.9438 147.083Z" opacity=".1"/><path fill="#FFDFB1" d="M310.372 129.651C336.918 157.978 407.061 153.621 427.916 81.7104C448.771 9.80016 374.411 -83.9011 374.411 -83.9011H186.72L-55.9503 -77.3638C-88.8121 -39.5927 -153.78 49.8956 -74.912 131.83C23.6734 234.247 78.8605 203.089 84.3429 199.382C116.573 177.591 145.431 147.083 154.91 105.681C164.39 64.2776 206.099 44.6657 249.704 64.2776C272.478 74.5207 283.826 101.323 310.372 129.651Z" opacity=".1"/></g></g></g><mask id="mask2" width="219" height="138" x="404" y="0" mask-type="alpha" maskUnits="userSpaceOnUse"><rect width="219" height="138" x="404" fill="#C4C4C4"/></mask><g mask="url(#mask2)"><path fill="#FFDFB1" fill-opacity=".25" d="M488.398 158.097C482.256 137.811 477.746 117.575 475.951 96.0744C475.667 93.8774 474.788 92.1 473.095 90.803C469.981 88.3855 467.702 89.5284 466.408 91.9132C463.387 96.8042 462.649 101.563 461.124 111.852C461.017 112.388 460.694 112.984 460.371 113.58C459.613 114.298 458.743 114.541 458.086 113.713C457.374 112.647 457.409 108.844 457.348 107.597C456.301 94.2326 457.908 100.106 456.421 85.8531C456.194 83.8934 455.243 78.8482 454.525 76.7727C453.535 74.5206 452.968 70.1266 449.436 70.8611C446.12 71.5349 445.302 81.8797 443.842 83.5524C442.22 85.5232 439.905 79.5948 439.727 76.8624C439.161 72.4685 436.815 60.4791 436.476 58.0447C434.676 46.4086 431.992 42.8594 424.987 34.7014C421.813 31.0363 418.73 34.6799 418.685 36.4629C416.371 52.2837 419.193 72.233 427.634 84.542C428.675 86.0213 429.231 88.3949 428.691 89.0518C427.882 90.5423 424.713 87.8875 423.894 87.3576C419.639 85.0065 420.073 84.885 416.035 82.4731C414.18 81.4741 411.567 81.1929 409.617 82.7497C408.641 83.5281 406.969 86.2718 406.595 87.6408C406.12 90.5555 407.394 95.0045 409.254 97.0137C417.078 105.702 423.138 109.824 435.971 119.136C437.608 120.195 436.805 122.696 435.011 122.945C430.604 122.912 428.37 122.272 424.67 122.294C423.528 122.361 421.188 122.256 419.622 124.464C417.732 127.268 419.061 131.955 421.846 133.958C437.959 146.399 460.222 148.522 475.738 161.383C477.76 163.094 479.565 164.865 482.016 165.445C484.467 166.024 487.454 164.936 488.257 162.436C488.737 160.531 488.676 159.284 488.398 158.097Z"/><path fill="#FFDFB1" fill-opacity=".25" d="M602.062 91.8148C596.563 88.6518 587.708 89.5206 581.777 92.7846C583.135 90.8915 584.597 88.763 585.956 86.8698C586.059 86.6345 586.481 86.2763 586.687 85.8056C592.656 84.875 608.275 86.0947 609.419 77.4368C603.263 73.3527 596.686 76.2788 592.141 79.3997C591.504 79.6452 590.66 80.3615 589.817 81.0778C591.907 78.1204 593.669 74.7024 595.646 71.3971C597.895 71.7043 601.53 71.8685 604.51 71.1116C606.749 70.8355 615.36 68.104 609.533 64.4805C607.265 63.0065 601.212 65.3392 597.511 67.7437C598.86 65.2672 599.891 62.9135 601.025 60.3244C610.171 50.9306 625.417 42.1209 621.952 25.8484C618.477 8.99243 605.404 26.747 603.577 32.7337C601.843 37.9017 598.29 49.6397 598.87 59.1984C597.736 61.7875 596.284 64.4994 594.719 66.8633C593.782 68.3983 592.948 69.6979 592.114 70.9975C595.272 61.3676 601.271 42.2306 591.002 41.4926C582.016 40.8468 589.762 64.2735 590.549 73.3614C587.943 77.4957 585.123 81.5173 582.405 85.3036C581.674 86.3678 580.943 87.4321 580.1 88.1484C581.103 84.0446 584.017 79.2043 583.84 74.7729C583.559 70.5769 580.543 62.3484 575.989 64.8859C569.739 68.2726 575.032 78.5585 576.718 83.778C577.954 87.6057 577.457 89.9493 578.216 90.635C574.337 95.2604 570.242 99.7731 566.034 103.938C569.98 96.7438 574.385 84.8728 566.252 77.4419C555.57 84.2975 565.051 95.904 564.985 105.125C560.674 109.525 556.036 113.465 551.182 117.292C551.182 117.292 550.966 117.179 550.863 117.414C554.415 112.328 558.079 107.59 559.045 101.153C559.907 94.9516 555.917 85.9247 550.584 93.2619C546.714 98.4706 548.541 105.788 548.858 112.318C549.12 115.347 548.305 117.813 548.333 119.563C543.685 122.919 538.822 126.163 533.734 128.711C539.254 119.736 549.843 100.395 537.682 94.9081C527.637 101.518 532.929 118.456 531.935 129.795C527.381 132.333 522.611 134.758 517.945 136.947C520.99 133.622 523.39 129.958 525.573 126.182C527.344 123.347 530.25 111.271 522.23 110.841C514.528 110.287 516.672 124.134 516.85 128.565C517.13 132.761 516.109 135.698 514.553 138.646C513.597 139.014 512.641 139.382 511.901 139.863C507.338 141.817 502.671 144.007 498.005 146.197C504.312 139.658 517.187 129.609 507.63 119.988C501.268 123.027 496.526 133.854 495.888 140.752C495.607 143.208 495.532 145.193 495.559 146.943C492.908 148.161 490.153 149.614 487.717 150.944C492.177 142.573 493.35 129.013 487.147 128.664C480.841 128.551 479.95 139.655 480.446 143.963C480.83 147.924 481.532 151.762 481.26 154.801C478.299 156.725 475.554 158.761 473.024 160.91C471.018 162.465 474.063 165.792 476.069 164.237C479.976 161.361 483.996 158.834 488.128 156.655C494.171 160.391 501.516 172.038 506.36 174.28C513.247 177.3 517.126 172.674 513.491 165.858C510.081 159.738 500.178 155.141 491.942 154.598C495.653 152.777 499.363 150.956 503.074 149.134C509.305 151.233 512.743 159.103 519.713 160.721C527.219 162.329 530.199 154.92 523.181 150.385C519.94 148.113 513.934 146.71 508.696 146.576C511.348 145.359 514.215 144.254 516.867 143.036C519.2 141.942 521.533 140.847 523.866 139.752C529.582 143.028 535.84 153.529 543.804 150.459C549.539 148.249 549.633 140.779 542.653 138.577C539.111 137.595 533.864 136.878 529.058 136.969C533.19 134.79 537.425 132.375 541.445 129.848C548.547 132.98 554.946 145.579 563.575 144.014C570.818 142.593 567.043 133.678 561.225 130.638C555.622 127.71 549.007 128.303 542.926 128.886C545.887 126.962 548.848 125.038 551.696 122.767C557.815 124.518 565.619 131.488 572.75 129.718C579.562 128.071 582.945 119.137 573.07 116.291C567.916 114.756 562.173 116.382 556.972 118.582C559.924 116.075 562.876 113.568 565.715 110.713C568.17 110.549 571.271 110.724 574.588 111.011C578.336 111.523 582.74 112.956 585.804 110.797C591.192 106.96 585.158 103.807 580.136 103.786C576.5 103.622 572.677 105.095 569.182 107.029C572.228 103.703 575.17 100.613 577.785 97.062C585.459 95.8655 600.768 104.443 602.062 91.8148Z"/></g><path fill="#1483E3" d="M535.072 108.427L463.69 128.531C462.587 128.835 461.469 128.126 461.191 126.921L439.07 33.2176C438.791 32.0125 439.44 30.7913 440.543 30.487L511.905 10.3822C513.009 10.0779 514.127 10.7866 514.405 11.9917L536.546 105.697C536.824 106.902 536.176 108.123 535.072 108.427Z"/><path fill="#fff" d="M533.122 105.611L463.906 125.125C463.706 125.174 463.497 125.051 463.451 124.832L442.104 34.4804C442.059 34.2617 442.172 34.0335 442.372 33.984L511.588 14.4707C511.788 14.4212 511.997 14.5446 512.042 14.7633L533.39 105.115C533.455 105.335 533.342 105.563 533.122 105.611Z"/><path fill="#339CF7" d="M528.965 104.329L461.557 123.311C460.514 123.598 459.434 122.914 459.171 121.775L437.543 30.2395C437.28 29.1002 437.907 27.9203 438.95 27.633L506.359 8.6293C507.402 8.34203 508.483 9.02634 508.746 10.1657L530.373 101.701C530.654 102.863 530.01 104.02 528.965 104.329Z"/><path fill="#94CBFF" d="M444.294 36.6261C445.161 36.6915 445.912 35.9771 445.972 35.0304C446.032 34.0838 445.378 33.2633 444.511 33.1979C443.644 33.1325 442.893 33.8469 442.833 34.7936C442.773 35.7403 443.428 36.5607 444.294 36.6261Z"/><path fill="#94CBFF" d="M446.304 45.3677C447.171 45.4331 447.922 44.7186 447.982 43.772C448.042 42.8253 447.388 42.0049 446.521 41.9395C445.655 41.874 444.903 42.5885 444.843 43.5351C444.784 44.4818 445.438 45.3023 446.304 45.3677Z"/><path fill="#94CBFF" d="M448.332 54.1323C449.199 54.1977 449.95 53.4833 450.01 52.5367C450.07 51.59 449.415 50.7695 448.549 50.7041C447.682 50.6387 446.931 51.3531 446.871 52.2998C446.811 53.2465 447.465 54.0669 448.332 54.1323Z"/><path fill="#94CBFF" d="M450.342 62.8738C451.208 62.9392 451.96 62.2248 452.02 61.2781C452.079 60.3315 451.425 59.511 450.559 59.4456C449.692 59.3802 448.941 60.0946 448.881 61.0413C448.821 61.988 449.475 62.8084 450.342 62.8738Z"/><path fill="#94CBFF" d="M452.351 71.6152C453.218 71.6806 453.969 70.9662 454.029 70.0195C454.089 69.0729 453.434 68.2524 452.568 68.187C451.701 68.1216 450.95 68.836 450.89 69.7827C450.83 70.7294 451.484 71.5498 452.351 71.6152Z"/><path fill="#94CBFF" d="M454.38 80.3581C455.247 80.4235 455.998 79.7091 456.058 78.7625C456.117 77.8158 455.463 76.9953 454.597 76.9299C453.73 76.8645 452.979 77.579 452.919 78.5256C452.859 79.4723 453.513 80.2927 454.38 80.3581Z"/><path fill="#94CBFF" d="M456.388 89.1214C457.255 89.1868 458.006 88.4724 458.066 87.5257C458.126 86.579 457.472 85.7586 456.605 85.6932C455.738 85.6278 454.987 86.3422 454.927 87.2889C454.867 88.2355 455.522 89.056 456.388 89.1214Z"/><path fill="#94CBFF" d="M458.417 97.8643C459.284 97.9297 460.035 97.2153 460.095 96.2686C460.155 95.3219 459.501 94.5015 458.634 94.4361C457.767 94.3707 457.016 95.0851 456.956 96.0318C456.896 96.9784 457.55 97.7989 458.417 97.8643Z"/><path fill="#94CBFF" d="M460.426 106.606C461.293 106.671 462.044 105.957 462.104 105.01C462.164 104.063 461.51 103.243 460.643 103.178C459.776 103.112 459.025 103.827 458.965 104.773C458.905 105.72 459.56 106.54 460.426 106.606Z"/><path fill="#94CBFF" d="M462.436 115.347C463.303 115.413 464.054 114.698 464.114 113.752C464.174 112.805 463.52 111.984 462.653 111.919C461.786 111.854 461.035 112.568 460.975 113.515C460.915 114.461 461.569 115.282 462.436 115.347Z"/><path fill="#2555EF" fill-rule="evenodd" d="M445.199 34.592C445.341 35.2132 444.995 35.8427 444.426 35.9978L438.429 37.6336C437.86 37.7887 437.284 37.4108 437.142 36.7896C437 36.1683 437.346 35.5389 437.915 35.3837L443.912 33.748C444.481 33.5928 445.057 33.9707 445.199 34.592Z" clip-rule="evenodd"/><path fill="#2555EF" fill-rule="evenodd" d="M447.227 43.3313C447.37 43.9521 447.026 44.5827 446.458 44.7397L440.46 46.3969C439.891 46.5539 439.314 46.178 439.17 45.5572C439.026 44.9364 439.371 44.3058 439.939 44.1488L445.937 42.4916C446.506 42.3346 447.083 42.7105 447.227 43.3313Z" clip-rule="evenodd"/><path fill="#2555EF" fill-rule="evenodd" d="M449.236 52.0728C449.379 52.6936 449.035 53.3241 448.467 53.4812L442.468 55.1383C441.9 55.2954 441.323 54.9194 441.179 54.2986C441.035 53.6778 441.379 53.0472 441.948 52.8902L447.946 51.233C448.514 51.076 449.092 51.452 449.236 52.0728Z" clip-rule="evenodd"/><path fill="#2555EF" fill-rule="evenodd" d="M451.265 60.8172C451.409 61.4381 451.064 62.0683 450.495 62.2248L444.477 63.8805C443.909 64.0369 443.332 63.6603 443.189 63.0393C443.045 62.4184 443.39 61.7882 443.959 61.6317L449.977 59.9761C450.545 59.8196 451.122 60.1962 451.265 60.8172Z" clip-rule="evenodd"/><path fill="#2555EF" fill-rule="evenodd" d="M453.274 69.5823C453.416 70.2036 453.07 70.833 452.501 70.9882L446.504 72.6239C445.935 72.7791 445.359 72.4012 445.217 71.7799C445.075 71.1586 445.421 70.5292 445.99 70.3741L451.987 68.7383C452.555 68.5832 453.132 68.961 453.274 69.5823Z" clip-rule="evenodd"/><path fill="#2555EF" fill-rule="evenodd" d="M455.282 78.3203C455.426 78.9411 455.082 79.5717 454.513 79.7287L448.515 81.3859C447.947 81.5429 447.369 81.167 447.226 80.5462C447.082 79.9254 447.426 79.2948 447.994 79.1378L453.993 77.4806C454.561 77.3236 455.138 77.6995 455.282 78.3203Z" clip-rule="evenodd"/><path fill="#2555EF" fill-rule="evenodd" d="M457.311 87.0633C457.455 87.6841 457.111 88.3146 456.542 88.4717L450.544 90.1288C449.976 90.2859 449.398 89.9099 449.255 89.2891C449.111 88.6683 449.455 88.0377 450.023 87.8807L456.022 86.2235C456.59 86.0665 457.167 86.4424 457.311 87.0633Z" clip-rule="evenodd"/><path fill="#2555EF" fill-rule="evenodd" d="M459.321 95.8047C459.465 96.4255 459.12 97.0561 458.552 97.2131L452.554 98.8703C451.985 99.0273 451.408 98.6514 451.264 98.0306C451.12 97.4098 451.465 96.7792 452.033 96.6222L458.031 94.965C458.6 94.808 459.177 95.1839 459.321 95.8047Z" clip-rule="evenodd"/><path fill="#2555EF" fill-rule="evenodd" d="M461.33 104.571C461.472 105.192 461.126 105.822 460.557 105.977L454.56 107.613C453.992 107.768 453.415 107.39 453.273 106.769C453.131 106.147 453.477 105.518 454.046 105.363L460.043 103.727C460.612 103.572 461.188 103.95 461.33 104.571Z" clip-rule="evenodd"/><path fill="#2555EF" fill-rule="evenodd" d="M463.358 113.311C463.502 113.932 463.158 114.562 462.589 114.719L456.591 116.376C456.023 116.533 455.445 116.158 455.302 115.537C455.158 114.916 455.502 114.285 456.07 114.128L462.069 112.471C462.637 112.314 463.214 112.69 463.358 113.311Z" clip-rule="evenodd"/><rect width="46.822" height="15.376" fill="#fff" rx="1" transform="matrix(0.959204 -0.268623 0.229304 0.976818 455.4 34.9958)"/><path fill="#224EE0" d="M559.458 131.501L488.006 111.675C486.905 111.379 486.25 110.154 486.522 108.951L508.351 15.149C508.622 13.9456 509.744 13.231 510.846 13.5276L582.297 33.3533C583.399 33.65 584.053 34.8749 583.782 36.0782L561.953 129.88C561.662 131.081 560.56 131.798 559.458 131.501Z"/><path fill="#fff" d="M558.98 128.029L489.692 108.793C489.48 108.73 489.36 108.503 489.415 108.293L510.468 17.8677C510.525 17.6359 510.733 17.5044 510.926 17.5654L580.213 36.8015C580.425 36.8644 580.546 37.0912 580.49 37.3015L559.457 127.728C559.401 127.939 559.193 128.07 558.98 128.029Z"/><path fill="#2555EF" d="M555.904 124.703L488.431 105.981C487.388 105.69 486.749 104.531 487.017 103.37L508.32 11.7614C508.586 10.6223 509.647 9.92355 510.71 10.2165L578.184 28.9173C579.227 29.2085 579.866 30.3674 579.598 31.5279L558.296 123.137C558.027 124.297 556.966 124.996 555.904 124.703Z"/><path fill="#6388FF" d="M512.165 21.1516C513.031 21.2322 513.793 20.5311 513.866 19.5856C513.94 18.6401 513.298 17.8082 512.433 17.7276C511.567 17.647 510.806 18.3481 510.732 19.2936C510.658 20.2391 511.3 21.0709 512.165 21.1516Z"/><path fill="#6388FF" d="M510.083 29.8816C510.948 29.9622 511.71 29.2611 511.784 28.3156C511.858 27.3701 511.216 26.5382 510.35 26.4576C509.484 26.377 508.723 27.0781 508.649 28.0236C508.575 28.9691 509.217 29.8009 510.083 29.8816Z"/><path fill="#6388FF" d="M508 38.6112C508.866 38.6918 509.627 37.9907 509.701 37.0452C509.775 36.0997 509.133 35.2679 508.267 35.1873C507.402 35.1066 506.64 35.8077 506.566 36.7532C506.492 37.6987 507.134 38.5306 508 38.6112Z"/><path fill="#6388FF" d="M505.917 47.3412C506.783 47.4218 507.544 46.7207 507.618 45.7752C507.692 44.8297 507.05 43.9979 506.184 43.9173C505.319 43.8366 504.557 44.5377 504.483 45.4832C504.41 46.4287 505.051 47.2606 505.917 47.3412Z"/><path fill="#6388FF" d="M503.834 56.0712C504.7 56.1518 505.462 55.4507 505.535 54.5052C505.609 53.5597 504.967 52.7279 504.102 52.6473C503.236 52.5666 502.474 53.2677 502.401 54.2132C502.327 55.1587 502.969 55.9906 503.834 56.0712Z"/><path fill="#6388FF" d="M501.752 64.8012C502.617 64.8818 503.379 64.1807 503.453 63.2352C503.527 62.2897 502.885 61.4579 502.019 61.3773C501.153 61.2966 500.392 61.9977 500.318 62.9432C500.244 63.8887 500.886 64.7206 501.752 64.8012Z"/><path fill="#6388FF" d="M499.669 73.5308C500.535 73.6115 501.296 72.9104 501.37 71.9649C501.444 71.0194 500.802 70.1875 499.936 70.1069C499.071 70.0263 498.309 70.7274 498.235 71.6729C498.161 72.6184 498.803 73.4502 499.669 73.5308Z"/><path fill="#6388FF" d="M497.586 82.2608C498.451 82.3414 499.213 81.6403 499.287 80.6948C499.36 79.7493 498.719 78.9175 497.853 78.8368C496.987 78.7562 496.226 79.4573 496.152 80.4028C496.078 81.3483 496.72 82.1802 497.586 82.2608Z"/><path fill="#6388FF" d="M495.503 90.9908C496.369 91.0715 497.131 90.3704 497.205 89.4249C497.278 88.4794 496.636 87.6475 495.771 87.5669C494.905 87.4863 494.144 88.1874 494.07 89.1329C493.996 90.0784 494.638 90.9102 495.503 90.9908Z"/><path fill="#6388FF" d="M493.44 99.7223C494.306 99.8029 495.067 99.1018 495.141 98.1563C495.215 97.2108 494.573 96.379 493.707 96.2983C492.842 96.2177 492.08 96.9188 492.006 97.8643C491.932 98.8098 492.574 99.6417 493.44 99.7223Z"/><path fill="#94CBFF" fill-rule="evenodd" d="M505.102 17.28C505.249 16.6603 505.829 16.2885 506.396 16.4497L512.381 18.1496C512.949 18.3108 513.289 18.9438 513.142 19.5636C512.994 20.1833 512.414 20.5551 511.847 20.3939L505.862 18.694C505.294 18.5328 504.954 17.8998 505.102 17.28Z" clip-rule="evenodd"/><path fill="#94CBFF" fill-rule="evenodd" d="M503.019 26.0101C503.166 25.3903 503.746 25.0185 504.313 25.1797L510.298 26.8796C510.866 27.0408 511.206 27.6738 511.059 28.2936C510.911 28.9133 510.332 29.2851 509.764 29.1239L503.779 27.424C503.212 27.2629 502.871 26.6298 503.019 26.0101Z" clip-rule="evenodd"/><path fill="#94CBFF" fill-rule="evenodd" d="M500.936 34.7397C501.084 34.1199 501.663 33.7482 502.231 33.9093L508.216 35.6093C508.783 35.7704 509.124 36.4035 508.976 37.0232C508.828 37.643 508.249 38.0147 507.681 37.8536L501.696 36.1536C501.129 35.9925 500.789 35.3594 500.936 34.7397Z" clip-rule="evenodd"/><path fill="#94CBFF" fill-rule="evenodd" d="M498.853 43.4697C499.001 42.8499 499.581 42.4782 500.148 42.6393L506.133 44.3392C506.7 44.5004 507.041 45.1335 506.893 45.7532C506.746 46.373 506.166 46.7447 505.599 46.5836L499.614 44.8836C499.046 44.7225 498.706 44.0894 498.853 43.4697Z" clip-rule="evenodd"/><path fill="#94CBFF" fill-rule="evenodd" d="M496.77 52.2003C496.918 51.5805 497.497 51.2084 498.065 51.3692L504.069 53.0709C504.637 53.2318 504.977 53.8646 504.83 54.4845C504.683 55.1043 504.104 55.4764 503.536 55.3156L497.531 53.6138C496.964 53.453 496.623 52.8201 496.77 52.2003Z" clip-rule="evenodd"/><path fill="#94CBFF" fill-rule="evenodd" d="M494.688 60.9299C494.835 60.3101 495.414 59.938 495.982 60.0988L501.987 61.8006C502.554 61.9614 502.895 62.5943 502.748 63.2141C502.6 63.8339 502.021 64.206 501.453 64.0452L495.449 62.3435C494.881 62.1826 494.541 61.5498 494.688 60.9299Z" clip-rule="evenodd"/><path fill="#94CBFF" fill-rule="evenodd" d="M492.624 69.6611C492.772 69.0414 493.352 68.6696 493.919 68.8308L499.904 70.5307C500.471 70.6919 500.812 71.3249 500.664 71.9447C500.517 72.5644 499.937 72.9362 499.37 72.775L493.385 71.0751C492.817 70.9139 492.477 70.2809 492.624 69.6611Z" clip-rule="evenodd"/><path fill="#94CBFF" fill-rule="evenodd" d="M490.542 78.3911C490.689 77.7714 491.269 77.3996 491.836 77.5608L497.821 79.2607C498.389 79.4219 498.729 80.0549 498.582 80.6747C498.434 81.2944 497.854 81.6662 497.287 81.505L491.302 79.8051C490.734 79.6439 490.394 79.0109 490.542 78.3911Z" clip-rule="evenodd"/><path fill="#94CBFF" fill-rule="evenodd" d="M488.459 87.1212C488.607 86.5014 489.186 86.1297 489.754 86.2908L495.739 87.9907C496.306 88.1519 496.646 88.7849 496.499 89.4047C496.351 90.0244 495.772 90.3962 495.204 90.235L489.219 88.5351C488.652 88.374 488.311 87.7409 488.459 87.1212Z" clip-rule="evenodd"/><path fill="#94CBFF" fill-rule="evenodd" d="M486.376 95.8508C486.524 95.231 487.103 94.8593 487.671 95.0204L493.656 96.7203C494.223 96.8815 494.564 97.5145 494.416 98.1343C494.269 98.754 493.689 99.1258 493.122 98.9646L487.136 97.2647C486.569 97.1036 486.229 96.4705 486.376 95.8508Z" clip-rule="evenodd"/><rect width="46.513" height="15.464" fill="#339CF7" rx="1" transform="matrix(0.966296 0.267344 -0.225419 0.971996 520.968 25.185)"/><path fill="#94CBFF" d="M582.088 62.8271L584.07 66.2042C584.665 67.2311 584.403 68.5888 583.462 69.2385L580.265 71.4955L576.099 64.388L579.297 62.131C580.229 61.5052 581.472 61.7914 582.088 62.8271Z"/><path fill="#94CBFF" d="M519.576 109.121L528.598 107.839L524.433 100.731L519.576 109.121Z"/><path fill="#1483E3" d="M576.634 64.0474L524.435 100.731L528.616 107.829L580.815 71.1446L576.634 64.0474Z"/><path fill="#339CF7" d="M578.018 66.3332L525.819 103.017L527.167 105.305L579.365 68.6206L578.018 66.3332Z"/></svg>