<svg width="340" height="150" viewBox="0 0 340 150" fill="none" xmlns="http://www.w3.org/2000/svg">
<rect width="340" height="150" rx="6" fill="#339CF7"/>
<g opacity="0.7">
<mask id="mask0" mask-type="alpha" maskUnits="userSpaceOnUse" x="0" y="0" width="340" height="150">
<rect width="340" height="150" rx="6" fill="#C4C4C4"/>
</mask>
<g mask="url(#mask0)">
<path opacity="0.1" d="M243.862 34.8C262.32 28.1013 313.354 34.7995 321.823 69.7339L340 168.82L118.008 177.148C70.6968 165.286 -14.697 141.282 22.22 140.166C68.3662 138.77 55.0817 103.183 91.4393 83.6453C120.525 68.015 135.869 88.1344 144.577 96.2054C154.365 105.277 179.257 135.979 200.512 124.815C221.767 113.65 215.194 78.7609 219.39 62.0141C222.186 52.2451 225.403 41.4987 243.862 34.8Z" fill="#0273D6"/>
<path opacity="0.1" d="M138.772 8.28556C119.195 -3.43719 114.533 -11.0198 122.69 -21.0213L329.301 -18.6294L334.895 19.0509C334.429 30.448 312.541 61.6399 286.144 64.1082C270.876 65.5357 259.575 56.4325 251.184 43.8725C245.631 35.5597 242.473 27.6896 231.762 22.939L231.622 22.8765C225.355 20.0961 217.607 16.6589 194.706 16.6589C175.129 15.2634 158.35 20.0083 138.772 8.28556Z" fill="#94CBFF"/>
<path opacity="0.1" d="M266.933 71.0845C281.476 62.7116 320.67 82.2486 326.408 104.623L329.204 173.006L106.12 160.401C95.632 153.19 57.8927 140.863 76.9105 140.863C100.683 140.863 115.617 125.512 119.56 115.743C121.813 110.16 136.184 80.1558 171.144 82.2491C206.103 84.3423 206.26 121.046 223.04 124.814C245.414 129.838 256.444 117.138 255.745 105.974C254.696 89.2269 255.745 77.5253 266.933 71.0845Z" fill="#C0E0FC"/>
<path opacity="0.1" d="M90.8937 106.672C103.48 113.65 107.674 136.909 101.381 145.05L25.1703 149.237L23.772 36.1962C23.772 36.1962 52.5502 13.8678 67.8206 28.5206C83.0911 43.1735 65.5822 59.0835 65.0229 69.6898C64.3237 82.9476 73.1266 96.8222 90.8937 106.672Z" fill="#94CBFF"/>
<path opacity="0.1" d="M55.0801 51.5472C35.5029 42.0574 29.0353 7.58691 36.0271 -7.7643L39.5231 -28L247.357 -25.9067L321.889 4.8544C313.032 6.94775 289.95 15.8059 250.358 15.8059C225.972 15.8059 209.601 35.4982 201.91 48.0583C194.219 60.6184 183.187 70.3874 172.699 71.0851C158.317 72.042 150.325 70.3874 141.235 58.525C132.146 46.6627 125.853 43.8716 113.967 43.1738C105.299 42.6649 94.7016 46.6627 87.9428 53.6406C85.2393 56.4317 74.6573 61.0371 55.0801 51.5472Z" fill="#0273D6"/>
<path opacity="0.1" d="M155.918 45.965C165.708 55.0359 191.577 53.6406 199.268 30.6138C206.959 7.58697 179.536 -22.4177 179.536 -22.4177H110.316L20.8212 -20.3243C8.70201 -8.22943 -15.2578 20.4262 13.8283 46.6628C50.1859 79.4586 70.5385 69.481 72.5604 68.2941C84.4465 61.3162 95.0892 51.5473 98.5851 38.2894C102.081 25.0315 117.463 18.7515 133.544 25.0315C141.943 28.3115 146.128 36.8941 155.918 45.965Z" fill="#C0E0FC"/>
</g>
</g>
</svg>
