<svg xmlns="http://www.w3.org/2000/svg" width="340" height="150" fill="none" viewBox="0 0 340 150"><rect width="340" height="150" fill="#2555EF" rx="6"/><mask id="mask0" width="340" height="150" x="0" y="0" mask-type="alpha" maskUnits="userSpaceOnUse"><rect width="340" height="150" fill="#C4C4C4" rx="6"/></mask><g mask="url(#mask0)"><g opacity=".6"><path fill="#1E45C7" d="M243.68 34.8C262.138 28.1013 313.173 34.7995 321.641 69.7339L339.819 168.82L117.827 177.148C70.5152 165.286 -14.8786 141.282 22.0384 140.166C68.1846 138.77 54.9001 103.183 91.2577 83.6454C120.344 68.015 135.687 88.1344 144.396 96.2054C154.183 105.277 179.075 135.979 200.331 124.815C221.586 113.65 215.012 78.7609 219.209 62.0141C222.004 52.2451 225.221 41.4987 243.68 34.8Z" opacity=".2"/><path fill="#6388FF" d="M138.591 8.28556C119.014 -3.43719 114.351 -11.0198 122.508 -21.0213L329.12 -18.6294L334.713 19.0509C334.247 30.448 312.36 61.6399 285.962 64.1082C270.695 65.5357 259.393 56.4325 251.003 43.8725C245.45 35.5597 242.291 27.6896 231.581 22.939L231.44 22.8765C225.173 20.0961 217.425 16.6589 194.524 16.6589C174.947 15.2634 158.168 20.0083 138.591 8.28556Z" opacity=".2"/><path fill="#6388FF" d="M266.751 71.0845C281.294 62.7116 320.488 82.2486 326.227 104.623L329.023 173.006L105.938 160.401C95.4503 153.19 57.7111 140.863 76.7289 140.863C100.501 140.863 115.435 125.512 119.378 115.743C121.631 110.16 136.003 80.1558 170.962 82.2491C205.921 84.3423 206.078 121.046 222.859 124.814C245.232 129.838 256.263 117.138 255.563 105.974C254.515 89.2269 255.563 77.5253 266.751 71.0845Z" opacity=".2"/><path fill="#4871F7" d="M90.7121 106.672C103.298 113.65 107.493 136.909 101.2 145.05L24.9887 149.237L23.5903 36.1962C23.5903 36.1962 52.3685 13.8678 67.639 28.5206C82.9094 43.1735 65.4006 59.0835 64.8413 69.6898C64.1421 82.9476 72.9449 96.8222 90.7121 106.672Z" opacity=".2"/><path fill="#1E45C7" d="M54.8984 51.5472C35.3213 42.0574 28.8536 7.58691 35.8455 -7.7643L39.3414 -28L247.175 -25.9067L321.707 4.8544C312.851 6.94775 289.769 15.8059 250.176 15.8059C225.791 15.8059 209.419 35.4982 201.728 48.0583C194.037 60.6184 183.005 70.3874 172.517 71.0851C158.135 72.042 150.143 70.3874 141.054 58.525C131.964 46.6627 125.672 43.8716 113.786 43.1738C105.117 42.6649 94.5199 46.6627 87.7612 53.6406C85.0576 56.4317 74.4756 61.0371 54.8984 51.5472Z" opacity=".2"/><path fill="#6388FF" d="M155.737 45.965C165.527 55.0359 191.395 53.6406 199.086 30.6138C206.777 7.58697 179.354 -22.4177 179.354 -22.4177H110.135L20.6396 -20.3243C8.52037 -8.22944 -15.4395 20.4262 13.6466 46.6628C50.0042 79.4586 70.3568 69.481 72.3787 68.2941C84.2649 61.3162 94.9075 51.5473 98.4034 38.2894C101.899 25.0315 117.281 18.7515 133.363 25.0315C141.762 28.3115 145.947 36.8941 155.737 45.965Z" opacity=".2"/></g></g></svg>