<svg width="17" height="17" viewBox="0 0 17 17" fill="none" xmlns="http://www.w3.org/2000/svg">
<path fill-rule="evenodd" clip-rule="evenodd" d="M16.5175 15.1579L11.3262 10.1646C12.3106 9.10077 12.8483 7.7228 12.8348 6.29875C12.8348 3.09634 10.1357 0.500217 6.80597 0.5C3.47626 0.499783 0.776757 3.09556 0.776306 6.29797C0.775856 9.50038 3.47463 12.0969 6.80434 12.0975C7.95268 12.1005 9.07733 11.7834 10.0422 11.1846L15.3453 16.2853C15.7005 16.5716 16.2181 16.5716 16.5734 16.2853C16.8641 15.9532 16.8398 15.4618 16.5175 15.1579V15.1579ZM2.17072 6.29914C2.17056 4.49665 3.29938 2.87156 5.03081 2.18167C6.76224 1.49178 8.75529 1.87295 10.0806 3.14745C11.4058 4.42194 11.8023 6.33876 11.0852 8.00406C10.368 9.66935 8.67842 10.7552 6.80428 10.7552C5.57453 10.7581 4.39426 10.2896 3.52465 9.45328C2.65504 8.61699 2.16779 7.48188 2.17072 6.29914Z" fill="#7F8182"/>
</svg>
