<svg xmlns="http://www.w3.org/2000/svg" width="17" height="12" fill="none" viewBox="0 0 17 12"><path fill="#fff" fill-rule="evenodd" d="M3.81454 4.25904C4.48565 1.81451 6.64058 0 9.22566 0C12.3321 0 14.8641 2.64303 14.8641 5.88566C14.8641 5.98635 14.8604 6.08642 14.8545 6.18467C15.4088 6.30188 15.8929 6.56481 16.2642 6.96982C16.752 7.502 17 8.23035 17 9.05851C17 9.89681 16.7542 10.6434 16.2506 11.1829C15.7453 11.7243 15.0334 12 14.2094 12H2.6158L2.52893 11.9665C1.08173 11.4082 0 9.95916 0 8.22956C0 6.01302 1.71332 4.25904 3.80374 4.25904C3.8073 4.25904 3.8109 4.25904 3.81454 4.25904ZM9.22566 1.08085C6.9877 1.08085 5.14069 2.74961 4.72216 4.93404L4.62063 5.46397L4.11296 5.35798C4.03445 5.34159 3.94868 5.33989 3.80374 5.33989C2.27955 5.33989 1.03545 6.61583 1.03545 8.22956C1.03545 9.44046 1.77582 10.4836 2.805 10.9191H14.2094C14.8094 10.9191 15.234 10.7232 15.509 10.4286C15.7859 10.1319 15.9645 9.67799 15.9645 9.05851C15.9645 8.45745 15.7881 8.01385 15.516 7.71709C15.2441 7.42037 14.8315 7.22131 14.2705 7.19741L13.7157 7.17378L13.777 6.59775C13.805 6.33536 13.8286 6.10795 13.8286 5.88566C13.8286 3.23996 11.7602 1.08085 9.22566 1.08085Z" clip-rule="evenodd"/><path fill="#fff" fill-rule="evenodd" d="M14.721 1.25949C15.0851 1.61307 15.094 2.19523 14.7408 2.55976L8.80414 8.68631L8.79919 8.69126C8.67281 8.81776 8.42669 9 8.07087 9C7.71506 9 7.46894 8.81776 7.34256 8.69126L7.32144 8.67013L5.22825 6.28313C4.89356 5.90146 4.93134 5.32047 5.31264 4.98545C5.69393 4.65043 6.27435 4.68824 6.60904 5.06991L8.10064 6.77088L13.422 1.27932C13.7752 0.914781 14.3568 0.905903 14.721 1.25949Z" clip-rule="evenodd"/></svg>