<svg xmlns="http://www.w3.org/2000/svg" width="16" height="16" fill="none" viewBox="0 0 16 16"><path fill="#fff" fill-rule="evenodd" d="M8.00018 1.45445C4.38523 1.45445 1.45473 4.38495 1.45473 7.99991C1.45473 11.6149 4.38523 14.5454 8.00018 14.5454C11.6151 14.5454 14.5456 11.6149 14.5456 7.99991C14.5456 4.38495 11.6151 1.45445 8.00018 1.45445ZM0.000183105 7.99991C0.000183105 3.58163 3.58191 -9.15527e-05 8.00018 -9.15527e-05C12.4185 -9.15527e-05 16.0002 3.58163 16.0002 7.99991C16.0002 12.4182 12.4185 15.9999 8.00018 15.9999C3.58191 15.9999 0.000183105 12.4182 0.000183105 7.99991Z" clip-rule="evenodd"/><path fill="#fff" fill-rule="evenodd" d="M8.00004 3.33331C8.36823 3.33331 8.66671 3.63179 8.66671 3.99998V7.58796L10.9648 8.73703C11.2942 8.90169 11.4277 9.30214 11.263 9.63146C11.0983 9.96077 10.6979 10.0943 10.3686 9.9296L7.7019 8.59626C7.47604 8.48334 7.33337 8.25249 7.33337 7.99998V3.99998C7.33337 3.63179 7.63185 3.33331 8.00004 3.33331Z" clip-rule="evenodd"/></svg>