<svg width="756" height="138" viewBox="0 0 756 138" fill="none" xmlns="http://www.w3.org/2000/svg">
<circle cx="148" cy="80" r="6" fill="#E65353"/>
<circle cx="148" cy="80" r="1.2" fill="white"/>
<path fill-rule="evenodd" clip-rule="evenodd" d="M706 68C706 68.5523 705.552 69 705 69L687 69C686.448 69 686 68.5523 686 68C686 67.4477 686.448 67 687 67L705 67C705.552 67 706 67.4477 706 68Z" fill="white"/>
<path fill-rule="evenodd" clip-rule="evenodd" d="M695.293 77.7071C694.902 77.3166 694.902 76.6834 695.293 76.2929L703.586 68L695.293 59.7071C694.902 59.3166 694.902 58.6834 695.293 58.2929C695.683 57.9024 696.317 57.9024 696.707 58.2929L705.707 67.2929C706.098 67.6834 706.098 68.3166 705.707 68.7071L696.707 77.7071C696.317 78.0976 695.683 78.0976 695.293 77.7071Z" fill="white"/>
<rect width="756" height="138" rx="6" fill="#339CF7"/>
<g opacity="0.7">
<mask id="mask0" mask-type="alpha" maskUnits="userSpaceOnUse" x="0" y="0" width="756" height="138">
<rect width="756" height="138" rx="6" fill="#C4C4C4"/>
</mask>
<g mask="url(#mask0)">
<path opacity="0.2" d="M548.835 106.464C598.886 88.264 737.267 106.463 760.23 201.38L809.519 470.595L207.577 493.224C79.2901 460.994 -152.259 395.776 -52.1572 392.743C72.9705 388.951 36.9489 292.262 135.534 239.177C214.403 196.71 256.007 251.374 279.621 273.303C306.16 297.949 373.656 381.368 431.29 351.034C488.925 320.7 471.101 225.906 482.479 180.405C490.06 153.863 498.784 124.665 548.835 106.464Z" fill="#0273D6"/>
<path opacity="0.2" d="M263.879 34.4247C210.795 2.57404 198.152 -18.0278 220.271 -45.202L780.507 -38.7031L795.674 63.6741C794.41 94.64 735.062 179.388 663.483 186.095C622.085 189.973 591.44 165.24 568.689 131.114C553.632 108.528 545.067 87.1455 516.026 74.238L515.644 74.0684C498.651 66.514 477.643 57.1752 415.545 57.1752C362.46 53.3834 316.963 66.2754 263.879 34.4247Z" fill="#94CBFF"/>
<path opacity="0.2" d="M134.056 301.741C168.185 320.699 179.557 383.895 162.495 406.014L-44.1556 417.389L-47.9474 110.258C-47.9474 110.258 30.0861 49.5912 71.4926 89.4029C112.899 129.215 65.4232 172.442 63.9065 201.259C62.0106 237.281 85.88 274.978 134.056 301.741Z" fill="#94CBFF"/>
<path opacity="0.2" d="M36.9436 151.966C-16.1409 126.182 -33.6782 32.5263 -14.7194 -9.18288L-5.24006 -64.1632L558.311 -58.4756L760.408 25.1021C736.393 30.7897 673.806 54.8572 566.449 54.8572C500.326 54.8572 455.934 108.361 435.08 142.487C414.225 176.613 384.31 203.155 355.872 205.051C316.874 207.651 295.204 203.155 270.558 170.925C245.911 138.695 228.849 131.112 196.619 129.216C173.114 127.833 144.379 138.695 126.052 157.654C118.722 165.237 90.028 177.75 36.9436 151.966Z" fill="#0273D6"/>
<path opacity="0.2" d="M310.372 136.799C336.918 161.445 407.061 157.654 427.916 95.0902C448.77 32.5264 374.411 -48.9962 374.411 -48.9962H186.72L-55.9505 -43.3085C-88.8123 -10.4467 -153.781 67.4105 -74.9122 138.695C23.6732 227.801 78.8603 200.692 84.3427 197.467C116.573 178.509 145.431 151.966 154.91 115.945C164.389 79.9232 206.099 62.8604 249.704 79.9232C272.478 88.835 283.826 112.154 310.372 136.799Z" fill="#C0E0FC"/>
</g>
</g>
<mask id="mask1" mask-type="alpha" maskUnits="userSpaceOnUse" x="413" y="0" width="208" height="138">
<rect x="413" width="208" height="138" fill="#C4C4C4"/>
</mask>
<g mask="url(#mask1)">
<path d="M432.325 89.6176C437.708 87.195 446.055 88.4685 451.503 91.6492C450.316 89.9264 449.045 87.9933 447.858 86.2706C447.773 86.0602 447.393 85.7247 447.223 85.304C441.615 84.1463 426.743 84.2887 426.123 76.7074C432.178 73.5238 438.256 76.4493 442.397 79.4244C442.987 79.6749 443.748 80.346 444.509 81.0172C442.687 78.3279 441.201 75.2581 439.504 72.2733C437.355 72.4081 433.9 72.3374 431.116 71.5056C429.008 71.1347 420.992 68.2589 426.711 65.4559C428.94 64.3096 434.552 66.6891 437.932 68.9932C436.786 66.7647 435.935 64.6614 434.999 62.3478C426.833 53.6584 412.854 45.1182 417.013 31.1984C421.212 16.7728 432.651 32.9489 434.062 38.252C435.428 42.839 438.165 53.2349 437.102 61.4969C438.038 63.8105 439.269 66.2494 440.626 68.3928C441.432 69.78 442.153 70.9569 442.874 72.1337C440.397 63.5906 435.738 46.6297 445.512 46.5915C454.065 46.558 445.464 66.4358 444.23 74.2772C446.478 78.0181 448.936 81.674 451.309 85.1195C451.944 86.0861 452.58 87.0526 453.341 87.7238C452.611 84.1033 450.108 79.7313 450.514 75.8957C451.006 72.2705 454.307 65.3058 458.488 67.7752C464.23 71.0812 458.661 79.6979 456.782 84.1291C455.404 87.3786 455.75 89.4417 454.993 89.9924C458.423 94.2343 462.062 98.3911 465.827 102.253C462.473 95.7774 458.935 85.2161 467.043 79.2438C476.801 85.8203 467.19 95.3376 466.758 103.344C470.608 107.416 474.794 111.107 479.189 114.713C479.189 114.713 479.4 114.628 479.485 114.839C476.391 110.216 473.172 105.889 472.602 100.246C472.118 94.8127 476.385 87.2123 481.046 93.893C484.435 98.6407 482.311 104.885 481.659 110.533C481.248 113.147 481.888 115.335 481.768 116.852C485.994 120.038 490.429 123.138 495.116 125.648C490.365 117.535 481.365 100.127 493.189 96.0785C502.356 102.405 496.43 116.795 496.763 126.694C500.944 129.164 505.335 131.548 509.641 133.722C506.932 130.657 504.855 127.337 502.988 123.932C501.461 121.367 499.355 110.716 506.981 110.813C514.312 110.784 511.536 122.676 511.129 126.512C510.638 130.137 511.449 132.746 512.765 135.395C513.651 135.771 514.538 136.147 515.214 136.608C519.434 138.571 523.74 140.745 528.046 142.919C522.419 136.874 510.754 127.398 520.329 119.608C526.197 122.619 530.111 132.294 530.346 138.318C530.48 140.466 530.445 142.194 530.325 143.711C532.773 144.923 535.306 146.346 537.545 147.643C533.765 140.116 533.382 128.279 539.281 128.34C545.265 128.611 545.513 138.301 544.811 142.011C544.235 145.426 543.363 148.716 543.458 151.37C546.161 153.213 548.655 155.141 550.938 157.155C552.755 158.622 549.69 161.331 547.873 159.863C544.323 157.138 540.648 154.709 536.848 152.575C530.918 155.463 523.33 165.141 518.618 166.803C511.928 169.02 508.498 164.778 512.31 159.075C515.871 153.963 525.506 150.555 533.343 150.567C529.923 148.768 526.503 146.97 523.084 145.172C517.064 146.628 513.383 153.257 506.688 154.252C499.487 155.207 497.06 148.602 503.955 145.078C507.15 143.296 512.919 142.431 517.891 142.622C515.443 141.41 512.784 140.283 510.336 139.07C508.183 137.983 506.03 136.896 503.877 135.809C498.283 138.317 491.787 147.064 484.402 143.933C479.084 141.678 479.396 135.189 486.131 133.688C489.541 133.043 494.554 132.728 499.105 133.089C495.305 130.956 491.42 128.611 487.745 126.182C480.844 128.484 474.102 139.044 466.006 137.179C459.216 135.521 463.273 128.005 468.952 125.708C474.421 123.496 480.66 124.398 486.393 125.26C483.689 123.417 480.986 121.574 478.407 119.435C472.513 120.596 464.741 126.188 458.076 124.234C451.707 122.405 448.98 114.452 458.494 112.561C463.462 111.531 468.819 113.279 473.631 115.494C470.968 113.145 468.304 110.796 465.766 108.151C463.447 107.865 460.498 107.835 457.338 107.889C453.758 108.114 449.507 109.1 446.718 107.046C441.816 103.4 447.705 101.017 452.467 101.294C455.923 101.364 459.467 102.867 462.677 104.751C459.968 101.686 457.345 98.8309 455.057 95.5957C447.847 94.1072 432.874 100.654 432.325 89.6176Z" fill="#94CBFF" fill-opacity="0.55"/>
<path d="M557.377 94.1739C561.276 94.1982 564.915 94.2209 568.946 94.636C575.576 95.3272 582.719 93.4222 589.083 92.0322C598.044 90.1386 611.425 88.2725 618.163 81.816C615.167 79.8478 608.93 80.3287 605.291 80.306C598.922 80.1363 592.946 80.8788 586.711 81.8797C579.955 82.8773 573.595 85.3071 567.1 86.5663C568.26 83.5842 573.975 82.3201 576.7 80.9075C582.539 77.9546 587.465 74.0862 592.39 69.6979C596.537 66.0846 600.814 62.3421 604.44 58.2057C606.771 55.6208 611.177 51.4892 612.076 48.2455C606.621 49.2513 601.691 52.0799 596.892 55.0393C591.704 58.3861 586.125 61.6006 581.59 65.8613C578.998 68.1847 570.452 78.0091 566.285 75.6436C570.668 64.2335 580.646 55.0679 586.461 44.5765C591.112 36.0274 595.759 26.1787 596.247 16.3039C591.319 19.6524 587.055 27.2941 583.691 32.212C578.775 39.1997 573.86 46.4474 569.334 53.8276C565.456 60.3019 560.404 65.5992 556.526 72.0735C561.434 62.4863 565.82 52.116 567.085 41.4663C567.59 36.7905 568.096 32.3746 568.47 27.568C568.594 25.6192 569.105 23.023 568.45 21.3293C564.95 24.0369 563.282 30.9149 561.475 34.8028C558.635 40.7637 555.535 46.723 553.866 53.0812C552.069 60.0884 549.493 67.3507 548.216 74.6211C551.317 68.9217 550.892 57.8716 550.222 51.4988C549.817 46.9473 549.402 39.2764 546.142 35.7469C542.651 41.3138 542.423 51.4501 541.534 57.8132C540.646 64.6961 540.027 74.1801 541.739 81.0792C542.792 85.2449 545.147 90.1985 548.664 92.6899C550.359 94.3901 556.077 94.1658 557.377 94.1739Z" fill="#94CBFF" fill-opacity="0.55"/>
</g>
<path d="M501.371 107.263C501.771 109.254 503.923 110.468 506.167 110.001L564.46 97.7131C566.705 97.2464 568.211 95.2555 567.781 93.2645L553.699 24.6701C553.3 22.6791 551.148 21.4659 548.903 21.9325L490.641 34.1893C488.396 34.6559 486.89 36.6469 487.32 38.6378L501.371 107.263Z" fill="#2555EF" stroke="#2555EF" stroke-width="2" stroke-miterlimit="10"/>
<path d="M445.413 119.054C445.812 121.045 447.964 122.258 450.209 121.791L508.471 109.534C510.716 109.068 512.222 107.077 511.792 105.086L497.68 36.4602C497.28 34.4693 495.128 33.256 492.883 33.7227L434.621 45.9795C432.377 46.4461 430.87 48.437 431.301 50.428L445.413 119.054Z" fill="#2555EF" stroke="#2555EF" stroke-width="2" stroke-miterlimit="10"/>
<path d="M500.416 108.259C501.185 111.961 504.628 114.356 508.84 113.485C513.052 112.583 515.266 109.005 514.528 105.304L513.206 98.8329C512.437 95.131 508.994 92.7356 504.782 93.6067C500.57 94.5088 498.356 98.0863 499.094 101.788L500.416 108.259Z" fill="#2555EF" stroke="#2555EF" stroke-width="3" stroke-miterlimit="10"/>
<path d="M549.374 25.8654L563.459 94.3969L449.851 118.3L435.767 49.7689L549.374 25.8654Z" fill="#DCECFA"/>
<path d="M492.272 36.3668C510.566 24.7011 524.37 21.5902 545.769 25.1677C550.258 47.0682 554.778 68.9686 559.266 90.8691C538.483 90.0603 524.586 92.9534 505.862 102.037C505.862 102.068 505.862 102.068 505.862 102.099C505.831 102.099 505.77 102.099 505.739 102.099C505.708 102.13 505.677 102.13 505.616 102.162C505.616 102.13 505.616 102.13 505.616 102.099C484.894 101.322 470.997 104.277 452.242 113.392C447.753 91.4913 443.234 69.5908 438.745 47.6904C457.069 35.9624 470.874 32.8516 492.272 36.3668Z" fill="white"/>
<path opacity="0.08" d="M465.09 37.5179C463.983 37.1134 463.061 36.8957 462.415 36.7712C472.039 34.0959 481.478 34.7492 491.654 36.2424C491.777 36.3357 492.146 36.3668 492.146 36.4602L505.613 102.037L505.674 102.317C505.674 102.317 505.49 102.255 505.459 102.068C504.69 99.2995 500.97 81.972 492.577 65.7022C489.348 59.4494 485.382 53.3521 480.678 48.2814C474.683 41.8108 468.78 38.7933 465.09 37.5179Z" fill="#2555EF" fill-opacity="0.5"/>
<path d="M541.399 37.7044C541.399 37.7044 520.461 30.4561 501.153 46.166" stroke="#CCD8FF" stroke-width="3" stroke-miterlimit="10"/>
<path d="M543.582 48.3125C543.582 48.3125 522.645 41.0642 503.337 56.774" stroke="#CCD8FF" stroke-width="3" stroke-miterlimit="10"/>
<path d="M545.95 59.8227C545.95 59.8227 525.012 52.5743 505.704 68.2842" stroke="#CCD8FF" stroke-width="3" stroke-miterlimit="10"/>
<path d="M548.315 71.3639C548.315 71.3639 527.377 64.1156 508.069 79.8255" stroke="#CCD8FF" stroke-width="3" stroke-miterlimit="10"/>
<path d="M550.684 82.8741C550.684 82.8741 529.747 75.6258 510.439 91.3356" stroke="#CCD8FF" stroke-width="3" stroke-miterlimit="10"/>
<path d="M487.837 48.9969C487.837 48.9969 466.9 41.7486 447.591 57.4585" stroke="#CCD8FF" stroke-width="3" stroke-miterlimit="10"/>
<path d="M489.992 59.5739C489.992 59.5739 469.054 52.3256 449.746 68.0354" stroke="#CCD8FF" stroke-width="3" stroke-miterlimit="10"/>
<path d="M492.359 71.1151C492.359 71.1151 471.421 63.8668 452.113 79.5767" stroke="#CCD8FF" stroke-width="3" stroke-miterlimit="10"/>
<path d="M494.724 82.6253C494.724 82.6253 473.787 75.377 454.479 91.0869" stroke="#CCD8FF" stroke-width="3" stroke-miterlimit="10"/>
<path d="M497.094 94.1355C497.094 94.1355 476.156 86.8872 456.848 102.597" stroke="#CCD8FF" stroke-width="3" stroke-miterlimit="10"/>
<path d="M599.211 73.7199L566.15 67.1113C563.829 66.6545 562.333 64.3932 562.81 62.0736L563.371 59.3218C563.831 56.9955 562.335 54.7342 560.013 54.2774L544.735 51.226C542.414 50.7692 540.154 52.2717 539.694 54.598L537.516 65.4884L535.008 77.9884L530.931 98.3426C530.489 100.514 531.902 102.623 534.052 103.055L591.091 114.442C593.258 114.88 595.365 113.461 595.8 111.307L602.392 78.4351C602.774 76.2608 601.361 74.152 599.211 73.7199Z" fill="#03D6D6"/>
<path d="M595.567 72.9836L562.507 66.375C560.185 65.9182 558.689 63.6568 559.167 61.3372L559.727 58.5855C560.187 56.2592 558.691 53.9978 556.37 53.541L541.091 50.4897C538.77 50.0329 536.51 51.5354 536.051 53.8617L533.872 64.7521L531.365 77.2521L527.287 97.6062C526.846 99.7781 528.259 101.887 530.408 102.319L587.447 113.705C589.614 114.144 591.722 112.725 592.157 110.571L598.748 77.6988C599.13 75.5245 597.717 73.4156 595.567 72.9836Z" fill="#2ADEDE"/>
</svg>
