<svg width="756" height="139" viewBox="0 0 756 139" fill="none" xmlns="http://www.w3.org/2000/svg">
<rect width="756" height="138" rx="6" fill="#02C7C7"/>
<g opacity="0.7">
<mask id="mask0" mask-type="alpha" maskUnits="userSpaceOnUse" x="0" y="0" width="756" height="138">
<rect width="756" height="138" rx="6" fill="#02C7C7"/>
</mask>
<g mask="url(#mask0)">
<mask id="mask1" mask-type="alpha" maskUnits="userSpaceOnUse" x="0" y="0" width="1667" height="305">
<rect width="1666.29" height="304.52" fill="#C4C4C4"/>
</mask>
<g mask="url(#mask1)">
<path opacity="0.2" d="M548.834 94.9452C598.885 73.9902 737.266 94.9437 760.229 204.226L809.518 514.187L207.577 540.241C79.2891 503.133 -152.26 428.044 -52.1581 424.552C72.9695 420.186 36.9479 308.862 135.533 247.744C214.402 198.849 256.007 261.786 279.62 287.034C306.159 315.411 373.655 411.455 431.29 376.53C488.924 341.605 471.1 232.464 482.478 180.077C490.059 149.517 498.783 115.9 548.834 94.9452Z" fill="#02B3B3"/>
<path opacity="0.2" d="M263.879 12.0024C210.794 -24.6688 198.152 -48.3887 220.271 -79.6757L780.507 -72.1932L795.674 45.6786C794.41 81.3312 735.062 178.906 663.483 186.627C622.084 191.093 591.44 162.616 568.689 123.326C553.632 97.3216 545.067 72.7024 516.026 57.8414L515.644 57.6461C498.65 48.9483 477.643 38.1961 415.544 38.1961C362.46 33.8305 316.963 48.6736 263.879 12.0024Z" fill="#33E8E8"/>
<path opacity="0.2" d="M134.056 319.777C168.184 341.605 179.557 414.365 162.494 439.831L-44.1563 452.928L-47.948 99.3127C-47.948 99.3127 30.0855 29.4646 71.492 75.3018C112.899 121.139 65.4226 170.909 63.9059 204.088C62.01 245.561 85.8793 288.964 134.056 319.777Z" fill="#03D6D6"/>
<path opacity="0.2" d="M36.9436 147.334C-16.1409 117.648 -33.6782 9.81679 -14.7194 -38.2051L-5.24006 -101.507L558.311 -94.9582L760.408 1.26891C736.393 7.81734 673.806 35.5274 566.449 35.5274C500.326 35.5274 455.934 97.1292 435.08 136.42C414.225 175.71 384.31 206.27 355.872 208.453C316.874 211.446 295.204 206.27 270.558 169.162C245.911 132.054 228.849 123.323 196.619 121.14C173.114 119.548 144.379 132.054 126.052 153.882C118.722 162.614 90.028 177.02 36.9436 147.334Z" fill="#02B3B3"/>
<path opacity="0.2" d="M310.372 129.872C336.917 158.247 407.061 153.883 427.916 81.8497C448.77 9.81695 374.411 -84.0439 374.411 -84.0439H186.72L-55.9505 -77.4955C-88.8123 -39.6601 -153.781 49.9807 -74.9122 132.054C23.6732 234.647 78.8602 203.435 84.3427 199.722C116.573 177.893 145.431 147.334 154.91 105.861C164.389 64.3872 206.099 44.7419 249.704 64.3872C272.478 74.6478 283.826 101.496 310.372 129.872Z" fill="#33E8E8"/>
</g>
</g>
</g>
<mask id="mask2" mask-type="alpha" maskUnits="userSpaceOnUse" x="413" y="0" width="208" height="139">
<rect x="413" y="0.154785" width="208" height="138" fill="#C4C4C4"/>
</mask>
<g mask="url(#mask2)">
<path d="M575.316 151.426C575.546 150.648 576.07 150.251 576.505 150.354C584.234 149.167 589.61 162.627 597.557 159.72C599.998 158.737 602.899 156.196 603.487 153.419C604.472 147.924 602.289 142.928 598.635 139.562C594.305 135.932 593.947 137.93 590.064 135.343C588.314 133.991 585.171 132.829 584.277 130.742C583.332 128.435 583.64 126.217 585.939 125.512C594.27 122.488 601.843 134.803 609.37 129.193C610.277 128.679 610.444 126.74 611.057 125.844C613.294 120.438 603.957 112.912 599.459 114.762C597.402 115.628 595.319 118.154 592.521 117.595C582.825 115.609 589.252 110.571 595.079 107.37C599.283 105.138 600.471 104.066 604.918 101.996C609.364 99.9256 615.691 90.9065 613.341 87.8497C609.713 82.8237 595.044 93.9265 595.044 93.9265C594.469 94.1026 591.466 96.2026 590.789 95.938C588.132 95.0996 590.726 91.2364 593.013 89.5915C618.659 71.8219 611.774 67.794 610.842 66.4273C608.683 63.3118 603.073 68.3348 599.84 71.2135C599.316 71.61 598.588 71.1249 598.627 70.405C599.292 66.1884 607.778 56.7439 609.631 54.9961C614.04 50.105 620.137 38.3236 617.071 35.722C615.513 34.311 611.552 36.7046 610.887 37.3803C600.805 46.1337 594.849 54.0951 588.369 65.9939C587.896 66.6108 585.864 69.3577 585.468 68.5348C584.013 64.0237 584.499 60.8062 581.727 58.5867C580.169 57.1758 576.694 56.3519 574.688 57.4385C572.349 58.8629 569.767 63.6665 569.895 65.9879C569.892 76.6106 574.961 88.7482 573.773 89.8204C569.428 92.3314 564.525 81.7953 559.12 84.159C556.296 85.2601 555.541 89.9761 556.78 92.6652C560.049 99.6893 565.732 107.39 566.075 115.074C566.19 116.455 565.436 117.631 564.388 118.424C561.526 120.245 558.32 114.381 555.408 112.441C550.694 108.928 546.669 113.702 547.613 119.549C549.106 126.882 553.654 128.793 558.098 133.805C559.708 135.436 561.239 142.048 560.306 144.222C559.104 147.895 574.856 152.984 575.316 151.426Z" fill="#33E8E8" fill-opacity="0.55"/>
<path d="M491.273 164.692C486.117 144.165 482.509 123.755 481.519 102.195C481.323 99.9883 480.547 98.1755 478.983 96.8088C476.109 94.2631 473.908 95.3101 472.601 97.6392C469.57 102.401 468.712 107.125 466.923 117.343C466.804 117.874 466.477 118.456 466.151 119.038C465.407 119.724 464.574 119.93 463.978 119.076C463.337 117.981 463.497 114.182 463.481 112.933C462.931 99.5352 464.261 105.471 463.323 91.1669C463.172 89.1992 462.438 84.1179 461.826 82.014C460.96 79.7222 460.568 75.3079 457.191 75.8945C454.022 76.4294 452.903 86.7325 451.461 88.3431C449.856 90.2448 447.856 84.2242 447.778 81.4863C447.387 77.072 445.558 64.9934 445.318 62.5468C443.996 50.844 441.566 47.1854 435.189 38.7411C432.298 34.9463 429.251 38.4586 429.149 40.2384C426.428 55.9511 428.443 76.0036 436.046 88.6558C436.985 90.1775 437.434 92.5725 436.899 93.2064C436.082 94.6621 433.162 91.877 432.403 91.3134C428.442 88.7864 428.858 88.6831 425.106 86.1045C423.379 85.0289 420.908 84.6388 419.005 86.1131C418.054 86.8503 416.375 89.5222 415.975 90.8746C415.427 93.7673 416.489 98.2663 418.187 100.352C425.324 109.36 430.939 113.732 442.809 123.572C444.328 124.699 443.482 127.165 441.771 127.338C437.59 127.122 435.491 126.389 431.979 126.257C430.893 126.275 428.675 126.073 427.115 128.214C425.228 130.938 426.335 135.676 428.911 137.795C443.79 150.899 464.849 153.949 479.148 167.447C481.01 169.241 482.664 171.087 484.971 171.768C487.278 172.45 490.149 171.487 490.994 169.022C491.513 167.139 491.497 165.89 491.273 164.692Z" fill="#33E8E8" fill-opacity="0.55"/>
<path d="M534.901 73.0411C529.337 75.3101 524.189 83.0063 522.453 89.9807C522.119 87.6061 521.701 84.9891 521.366 82.6145C521.282 82.3721 521.325 81.7907 521.157 81.306C524.407 75.8842 535.248 64.175 530.453 57.3847C523.878 59.5553 521.51 66.8195 520.577 72.5839C520.323 73.2618 520.238 74.4245 520.152 75.5872C519.609 71.9041 518.56 68.1718 517.721 64.3429C519.366 62.7464 521.813 59.9399 523.249 57.0349C524.515 55.0503 528.316 46.2862 522.247 48.506C519.845 49.3261 517.436 55.7666 516.588 60.3682C515.875 57.6054 515.035 55.1816 514.111 52.5154C514 38.8035 518.191 20.592 505.561 12.3366C492.552 3.69298 495.476 26.2272 498.124 31.7546C500.31 36.6514 505.522 47.4638 512.003 53.4813C512.927 56.1475 513.724 59.1527 514.227 62.0121C514.604 63.8053 514.897 65.3562 515.19 66.9071C511.072 57.8406 502.707 40.0465 495.621 47.7883C489.42 54.5623 509.379 64.2337 515.693 69.7665C516.656 74.6615 517.409 79.6531 518.078 84.4023C518.287 85.7108 518.496 87.0193 518.411 88.182C516.435 84.5937 515.219 78.9715 512.273 76.1085C509.411 73.4879 502.21 70.3279 500.898 75.7041C499.036 83.0175 509.018 85.7455 513.44 87.9324C516.682 89.5361 517.859 91.5243 518.786 91.3804C519.243 97.6313 519.489 103.979 519.439 110.18C517.384 102.134 512.636 90.5476 502.649 92.0348C500.149 105.258 513.673 105.521 519.522 111.828C519.557 118.272 519.086 124.667 518.405 131.158C518.405 131.158 518.194 131.255 518.278 131.497C517.316 125.197 516.649 119.043 513.158 113.902C509.75 109.003 501.412 106.084 502.665 115.34C503.5 121.979 509.353 125.476 513.73 129.649C515.834 131.494 516.885 133.821 518.021 134.985C517.172 140.992 516.112 147.095 514.462 152.907C512.283 142.39 506.746 120.773 495.406 126.812C493.159 139.358 507.391 146.598 513.996 155.087C512.684 160.463 511.161 165.936 509.555 171.166C509.391 166.466 508.596 162.056 507.589 157.742C506.919 154.398 501.074 143.875 495.633 150.021C490.318 155.827 500.547 163.497 503.493 166.36C506.355 168.981 507.574 171.793 508.455 175.041C508.074 176.058 507.694 177.074 507.525 177.995C505.834 182.983 504.227 188.213 502.62 193.444C502.504 183.947 504.377 166.798 492.074 167.942C489.917 175.11 493.78 186.26 497.777 191.45C499.165 193.342 500.386 194.748 501.522 195.913C500.592 198.867 499.745 202.064 499.026 204.921C496.551 195.663 488.641 185.525 484.423 190.267C480.288 195.252 486.809 203.498 489.882 206.022C492.66 208.4 495.565 210.44 497.332 212.719C496.654 216.401 496.186 219.985 495.93 223.473C495.632 226.138 499.719 225.95 500.017 223.286C500.696 218.199 501.671 213.259 502.94 208.464C509.22 206.148 521.394 208.152 525.947 205.785C532.313 202.306 531.856 196.055 525.159 194.349C519.052 192.935 509.735 197.766 504.083 204.008C505.309 199.795 506.536 195.581 507.762 191.368C513.117 187.79 520.361 190.369 525.885 185.871C531.747 180.938 528.932 173.52 521.514 176.077C517.974 177.138 513.209 181.007 509.75 185.12C510.68 182.166 511.821 179.116 512.751 176.161C513.554 173.546 514.358 170.931 515.161 168.316C520.936 165.95 531.677 168.05 534.846 159.575C537.128 153.474 532.415 148.331 526.512 152.441C523.603 154.617 519.765 158.342 516.727 162.262C517.996 157.467 519.182 152.43 520.156 147.489C526.733 143.913 538.905 147.323 543.464 139.335C547.221 132.558 539.093 129.542 533.403 132.15C527.923 134.661 524.04 140.372 520.495 145.648C521.173 141.967 521.852 138.286 522.235 134.459C527.295 130.735 536.776 129.199 540.239 122.276C543.575 115.691 540.045 106.916 531.865 112.912C527.564 116.007 524.904 121.72 522.959 127.386C523.259 123.316 523.558 119.247 523.563 115.032C525.04 112.95 527.149 110.579 529.469 108.112C532.211 105.451 535.963 102.889 536.557 98.9651C537.576 92.038 531.675 94.7426 528.426 98.7592C525.979 101.566 524.458 105.633 523.442 109.75C523.279 105.05 523.2 100.593 522.615 96.0858C526.794 89.115 542.137 82.6452 534.901 73.0411Z" fill="#33E8E8" fill-opacity="0.55"/>
</g>
<path fill-rule="evenodd" clip-rule="evenodd" d="M499.658 127.683C496.082 128.348 492.62 125.475 492.003 121.088L484.793 69.8202C484.195 65.5707 486.555 61.4745 490.25 60.7872C493.826 60.1221 497.307 63.1319 497.905 67.3814C497.905 67.3814 499.39 77.9366 500.122 83.1457C501.78 94.9346 505.096 118.513 505.096 118.513C505.713 122.899 503.353 126.995 499.658 127.683Z" fill="#339CF7"/>
<path fill-rule="evenodd" clip-rule="evenodd" d="M485.721 123.383C482.145 124.048 478.664 121.038 478.066 116.788L472.842 79.6395C472.225 75.2529 474.604 71.2938 478.299 70.6065C481.875 69.9414 485.356 72.9512 485.954 77.2007L491.198 114.487C491.795 118.736 489.297 122.717 485.721 123.383Z" fill="#4871F7"/>
<path fill-rule="evenodd" clip-rule="evenodd" d="M500.528 86.0238L541.057 78.4857L543.293 94.3871L502.765 101.925L500.528 86.0238V86.0238Z" fill="#4871F7"/>
<path fill-rule="evenodd" clip-rule="evenodd" d="M470.127 107.293L476.564 106.095L474.328 90.194L467.891 91.3912C464.315 92.0563 461.836 96.1747 462.453 100.561C463.07 104.948 466.432 107.98 470.127 107.293Z" fill="#339CF7"/>
<path fill-rule="evenodd" clip-rule="evenodd" d="M563.442 108.927C559.866 109.592 556.384 106.583 555.787 102.333L550.562 65.1843C549.945 60.7977 552.324 56.8386 556.019 56.1513C559.595 55.4861 563.076 58.496 563.674 62.7455L568.918 100.031C569.516 104.281 567.018 108.262 563.442 108.927Z" fill="#4871F7"/>
<path fill-rule="evenodd" clip-rule="evenodd" d="M551.274 118.082C547.698 118.747 544.236 115.875 543.619 111.488L536.409 60.22C535.811 55.9705 538.171 51.8743 541.866 51.187C545.442 50.5219 548.923 53.5317 549.521 57.7812L556.731 109.049C557.329 113.299 554.969 117.395 551.274 118.082Z" fill="#339CF7"/>
<path fill-rule="evenodd" clip-rule="evenodd" d="M573.83 88.0039L567.393 89.2012L565.157 73.2998L571.594 72.1026C575.17 71.4375 578.651 74.4473 579.268 78.8339C579.885 83.2205 577.406 87.3388 573.83 88.0039Z" fill="#339CF7"/>
<path fill-rule="evenodd" clip-rule="evenodd" d="M510.593 25.8889L509.624 15.5191L513.515 24.9234L522.294 23.8532L514.374 28.421L515.343 38.7907L511.452 29.3865L502.673 30.4566L510.593 25.8889Z" fill="white"/>
<path fill-rule="evenodd" clip-rule="evenodd" d="M472.115 54.8853L471.448 48.3982L473.865 54.2786L479.387 53.5329L474.412 56.4275L475.079 62.9147L472.662 57.0343L467.14 57.78L472.115 54.8853Z" fill="white"/>
<path fill-rule="evenodd" clip-rule="evenodd" d="M549.325 33.3671L548.487 24.8016L551.79 32.6273L559.119 31.6862L552.552 35.4395L553.39 44.005L550.087 36.1793L542.758 37.1204L549.325 33.3671Z" fill="white"/>
</svg>
